<svg width="71" height="72" viewBox="0 0 71 72" fill="none" xmlns="http://www.w3.org/2000/svg">
<path d="M64.0663 15.5404H60.2614C62.3768 13.4251 56.612 19.1904 66.3235 9.47834C68.4909 7.3121 68.4936 3.80191 66.3246 1.63459C64.1584 -0.533273 60.6482 -0.53544 58.4809 1.63405C56.8352 3.27918 46.1449 13.969 44.5734 15.5404H6.9337C3.11041 15.5404 0 18.6509 0 22.4736V64.0753C0 67.8985 3.11041 71.009 6.9337 71.009H64.0663C67.8896 71.009 71 67.8985 71 64.0753V22.4736C71 18.6503 67.8896 15.5404 64.0663 15.5404ZM32.3809 32.2767C32.5841 31.6667 32.9313 31.1039 33.3847 30.651L33.4399 30.5952L37.3629 34.5182L37.3082 34.5729C36.8537 35.0269 36.2914 35.3741 35.6809 35.5772L30.7298 37.2283L32.3809 32.2767ZM31.4243 28.689C30.667 29.4463 30.0879 30.3834 29.7499 31.3997L27.3334 38.6475L25.5409 40.3192C24.9803 40.8414 24.9499 41.719 25.4721 42.2791C25.9943 42.8386 26.8719 42.8695 27.432 42.3473L29.2624 40.641L36.5579 38.2088C37.5742 37.8708 38.5118 37.2917 39.2702 36.5333L49.1691 26.6338H59.9066V59.915H16.6409V26.6338H33.4795L31.4243 28.689ZM39.3233 32.5562L35.4014 28.6343L56.5189 7.5174L60.4402 11.4393L39.3233 32.5562ZM60.4418 3.59499C61.5111 2.52514 63.2662 2.49751 64.3632 3.59553C65.4471 4.67838 65.4482 6.43239 64.3626 7.51686L62.4017 9.4778L58.4803 5.55646L60.4418 3.59499ZM68.2265 64.0753C68.2265 66.3693 66.3604 68.2355 64.0663 68.2355H6.9337C4.63962 68.2355 2.77348 66.3693 2.77348 64.0753V22.4736C2.77348 20.1801 4.63962 18.3139 6.9337 18.3139H41.7999L36.253 23.8603H15.2536C14.4882 23.8603 13.8674 24.4817 13.8674 25.2471V61.3018C13.8674 62.0677 14.4882 62.6885 15.2536 62.6885H61.2928C62.0588 62.6885 62.6796 62.0677 62.6796 61.3018V25.2471C62.6796 24.4817 62.0588 23.8603 61.2928 23.8603H51.9415L57.4885 18.3139H64.0663C66.3604 18.3139 68.2265 20.1801 68.2265 22.4736V64.0753Z" fill="#3482DE"/>
</svg>
