<svg width="104" height="32" viewBox="0 0 104 32" fill="none" xmlns="http://www.w3.org/2000/svg">
<path d="M62 0H75.6271C78.7834 0 81.583 0.646921 84.0257 1.94076C86.4684 3.2346 88.3622 5.07005 89.7071 7.44711C91.052 9.82417 91.7244 12.6074 91.7244 15.7969C91.7244 18.9864 91.052 21.7696 89.7071 24.1467C88.3622 26.5237 86.4684 28.3592 84.0257 29.653C81.583 30.9469 78.7834 31.5938 75.6271 31.5938H62V0ZM75.2978 24.4626C77.7679 24.4626 79.7441 23.6953 81.2262 22.1608C82.7357 20.6262 83.4905 18.5049 83.4905 15.7969C83.4905 13.0889 82.7357 10.9676 81.2262 9.43301C79.7441 7.89845 77.7679 7.13117 75.2978 7.13117H70.1516V24.4626H75.2978Z" fill="#3482DE"/>
<path d="M94.6957 0H104L102.436 20.0846H96.219L94.6957 0ZM99.3478 32C97.9755 32 96.8502 31.5487 95.9719 30.646C95.0937 29.7132 94.6545 28.5849 94.6545 27.2609C94.6545 25.9069 95.0937 24.7936 95.9719 23.921C96.8502 23.0484 97.9755 22.6121 99.3478 22.6121C100.72 22.6121 101.832 23.0484 102.683 23.921C103.561 24.7936 104 25.9069 104 27.2609C104 28.5849 103.561 29.7132 102.683 30.646C101.804 31.5487 100.693 32 99.3478 32Z" fill="#3482DE"/>
<path d="M23.5239 25.0057V32H0V0H22.9797V6.99429H8.20405V12.3886H21.2217V19.1543H8.20405V25.0057H23.5239Z" fill="#2B2B2B"/>
<path d="M56 0V32H49.1772L36.2433 14.9486V32H28.1229V0H34.9457L47.8797 17.0514V0H56Z" fill="#2B2B2B"/>
</svg>
