<svg width="45" height="70" viewBox="0 0 45 70" fill="none" xmlns="http://www.w3.org/2000/svg">
<path d="M22.5 60.3333C24.1569 60.3333 25.5 58.9901 25.5 57.3333C25.5 55.6764 24.1569 54.3333 22.5 54.3333C20.8431 54.3333 19.5 55.6764 19.5 57.3333C19.5 58.9901 20.8431 60.3333 22.5 60.3333Z" fill="#3482DE"/>
<path d="M17.5609 27.7726L11.5609 21.7726C10.9744 21.1861 10.0264 21.1861 9.43988 21.7726C8.85337 22.3591 8.85337 23.3071 9.43988 23.8936L14.3794 28.8331L9.43988 33.7726C8.85337 34.3591 8.85337 35.3071 9.43988 35.8936C9.73238 36.1861 10.1164 36.3331 10.5004 36.3331C10.8844 36.3331 11.2684 36.1861 11.5609 35.8936L17.5609 29.8936C18.1474 29.3071 18.1474 28.3591 17.5609 27.7726Z" fill="#3482DE"/>
<path d="M34.5 33.333H22.5C21.672 33.333 21 34.005 21 34.833C21 35.661 21.672 36.333 22.5 36.333H34.5C35.328 36.333 36 35.661 36 34.833C36 34.005 35.328 33.333 34.5 33.333Z" fill="#3482DE"/>
<path d="M34.5 24.333H25.5C24.672 24.333 24 25.005 24 25.833C24 26.661 24.672 27.333 25.5 27.333H34.5C35.328 27.333 36 26.661 36 25.833C36 25.005 35.328 24.333 34.5 24.333Z" fill="#3482DE"/>
<path d="M34.5 42.333H10.5C9.672 42.333 9 43.005 9 43.833C9 44.661 9.672 45.333 10.5 45.333H34.5C35.328 45.333 36 44.661 36 43.833C36 43.005 35.328 42.333 34.5 42.333Z" fill="#3482DE"/>
<path d="M37.494 0.333252C37.2165 0.333252 7.5 0.333252 7.5 0.333252C7.5 0.333252 7.5 0.333252 7.4985 0.333252C5.496 0.333252 3.6135 1.11325 2.1975 2.52925C0.7815 3.94525 0 5.83075 0 7.83325V10.8303C0 10.8318 0 10.8318 0 10.8333C0 10.8348 0 10.8348 0 10.8363V61.8333C0 65.9688 3.3645 69.3333 7.5 69.3333H37.5C41.6355 69.3333 45 65.9688 45 61.8333V7.83325C45 3.69775 41.6355 0.333252 37.494 0.333252ZM3 7.83325C3 6.63175 3.468 5.50075 4.3185 4.65175C5.1675 3.80275 6.297 3.33325 7.4985 3.33325H22.4985C32.4795 3.33325 36.084 3.33325 37.4985 3.21775V3.33325C39.9795 3.33325 41.9985 5.35225 41.9985 7.83325V9.33325H3V7.83325ZM42 61.8333C42 64.3143 39.981 66.3333 37.5 66.3333H7.5C5.019 66.3333 3 64.3143 3 61.8333V12.3333H42V61.8333Z" fill="#3482DE"/>
</svg>
