<svg width="217" height="218" viewBox="0 0 217 218" fill="none" xmlns="http://www.w3.org/2000/svg">
<path fill-rule="evenodd" clip-rule="evenodd" d="M3.8632 0.250208C5.98496 0.250208 7.70139 1.97164 7.70139 4.08839C7.70139 6.21015 5.97996 7.92658 3.8632 7.92658C1.74144 7.92658 0.0250208 6.20515 0.0250208 4.08839C0.0250208 1.96663 1.74645 0.250208 3.8632 0.250208ZM213.162 209.549C215.284 209.549 217 211.27 217 213.387C217 215.509 215.279 217.225 213.162 217.225C211.04 217.225 209.324 215.504 209.324 213.387C209.324 211.265 211.045 209.549 213.162 209.549ZM213.162 188.616C215.284 188.616 217 190.338 217 192.455C217 194.576 215.279 196.293 213.162 196.293C211.04 196.293 209.324 194.571 209.324 192.455C209.324 190.333 211.045 188.616 213.162 188.616ZM213.162 167.684C215.284 167.684 217 169.406 217 171.522C217 173.644 215.279 175.36 213.162 175.36C211.04 175.36 209.324 173.639 209.324 171.522C209.324 169.401 211.045 167.684 213.162 167.684ZM213.162 146.752C215.284 146.752 217 148.473 217 150.59C217 152.712 215.279 154.428 213.162 154.428C211.04 154.428 209.324 152.707 209.324 150.59C209.324 148.468 211.045 146.752 213.162 146.752ZM213.162 125.819C215.284 125.819 217 127.541 217 129.658C217 131.779 215.279 133.496 213.162 133.496C211.04 133.496 209.324 131.774 209.324 129.658C209.324 127.536 211.045 125.819 213.162 125.819ZM213.162 104.887C215.284 104.887 217 106.608 217 108.725C217 110.847 215.279 112.563 213.162 112.563C211.04 112.563 209.324 110.842 209.324 108.725C209.324 106.603 211.045 104.887 213.162 104.887ZM213.162 83.9546C215.284 83.9546 217 85.6761 217 87.7928C217 89.9146 215.279 91.631 213.162 91.631C211.04 91.631 209.324 89.9096 209.324 87.7928C209.324 85.6711 211.045 83.9546 213.162 83.9546ZM213.162 63.0223C215.284 63.0223 217 64.7437 217 66.8605C217 68.9822 215.279 70.6986 213.162 70.6986C211.04 70.6986 209.324 68.9772 209.324 66.8605C209.324 64.7387 211.045 63.0223 213.162 63.0223ZM213.162 42.0899C215.284 42.0899 217 43.8113 217 45.9281C217 48.0499 215.279 49.7663 213.162 49.7663C211.04 49.7663 209.324 48.0449 209.324 45.9281C209.324 43.8063 211.045 42.0899 213.162 42.0899ZM213.162 21.1575C215.284 21.1575 217 22.879 217 24.9957C217 27.1175 215.279 28.8339 213.162 28.8339C211.04 28.8339 209.324 27.1125 209.324 24.9957C209.324 22.874 211.045 21.1575 213.162 21.1575ZM213.162 0.225187C215.284 0.225187 217 1.94661 217 4.06337C217 6.18513 215.279 7.90155 213.162 7.90155C211.04 7.90155 209.324 6.18013 209.324 4.06337C209.324 1.94161 211.045 0.225187 213.162 0.225187ZM192.229 209.524C194.351 209.524 196.068 211.245 196.068 213.362C196.068 215.484 194.346 217.2 192.229 217.2C190.108 217.2 188.391 215.479 188.391 213.362C188.391 211.24 190.113 209.524 192.229 209.524ZM192.229 188.591C194.351 188.591 196.068 190.313 196.068 192.43C196.068 194.551 194.346 196.268 192.229 196.268C190.108 196.268 188.391 194.546 188.391 192.43C188.391 190.308 190.113 188.591 192.229 188.591ZM192.229 167.659C194.351 167.659 196.068 169.38 196.068 171.497C196.068 173.619 194.346 175.335 192.229 175.335C190.108 175.335 188.391 173.614 188.391 171.497C188.391 169.375 190.113 167.659 192.229 167.659ZM192.229 146.727C194.351 146.727 196.068 148.448 196.068 150.565C196.068 152.687 194.346 154.403 192.229 154.403C190.108 154.403 188.391 152.682 188.391 150.565C188.391 148.443 190.113 146.727 192.229 146.727ZM192.229 125.794C194.351 125.794 196.068 127.516 196.068 129.633C196.068 131.754 194.346 133.471 192.229 133.471C190.108 133.471 188.391 131.749 188.391 129.633C188.391 127.511 190.113 125.794 192.229 125.794ZM192.229 104.862C194.351 104.862 196.068 106.583 196.068 108.7C196.068 110.822 194.346 112.538 192.229 112.538C190.108 112.538 188.391 110.817 188.391 108.7C188.391 106.578 190.113 104.862 192.229 104.862ZM192.229 83.9296C194.351 83.9296 196.068 85.651 196.068 87.7678C196.068 89.8896 194.346 91.606 192.229 91.606C190.108 91.606 188.391 89.8846 188.391 87.7678C188.391 85.646 190.113 83.9296 192.229 83.9296ZM192.229 62.9973C194.351 62.9973 196.068 64.7187 196.068 66.8354C196.068 68.9572 194.346 70.6736 192.229 70.6736C190.108 70.6736 188.391 68.9522 188.391 66.8354C188.391 64.7137 190.113 62.9973 192.229 62.9973ZM192.229 42.0649C194.351 42.0649 196.068 43.7863 196.068 45.9031C196.068 48.0248 194.346 49.7413 192.229 49.7413C190.108 49.7413 188.391 48.0198 188.391 45.9031C188.391 43.7813 190.113 42.0649 192.229 42.0649ZM192.229 21.1325C194.351 21.1325 196.068 22.854 196.068 24.9707C196.068 27.0925 194.346 28.8089 192.229 28.8089C190.108 28.8089 188.391 27.0875 188.391 24.9707C188.391 22.849 190.113 21.1325 192.229 21.1325ZM192.229 0.200166C194.351 0.200166 196.068 1.92159 196.068 4.03835C196.068 6.16011 194.346 7.87653 192.229 7.87653C190.108 7.87653 188.391 6.15511 188.391 4.03835C188.391 1.91659 190.113 0.200166 192.229 0.200166ZM171.297 209.499C173.419 209.499 175.135 211.22 175.135 213.337C175.135 215.459 173.414 217.175 171.297 217.175C169.175 217.175 167.459 215.454 167.459 213.337C167.459 211.215 169.18 209.499 171.297 209.499ZM171.297 188.566C173.419 188.566 175.135 190.288 175.135 192.405C175.135 194.526 173.414 196.243 171.297 196.243C169.175 196.243 167.459 194.521 167.459 192.405C167.459 190.283 169.18 188.566 171.297 188.566ZM171.297 167.634C173.419 167.634 175.135 169.355 175.135 171.472C175.135 173.594 173.414 175.31 171.297 175.31C169.175 175.31 167.459 173.589 167.459 171.472C167.459 169.35 169.18 167.634 171.297 167.634ZM171.297 146.702C173.419 146.702 175.135 148.423 175.135 150.54C175.135 152.662 173.414 154.378 171.297 154.378C169.175 154.378 167.459 152.657 167.459 150.54C167.459 148.418 169.18 146.702 171.297 146.702ZM171.297 125.769C173.419 125.769 175.135 127.491 175.135 129.608C175.135 131.729 173.414 133.446 171.297 133.446C169.175 133.446 167.459 131.724 167.459 129.608C167.459 127.486 169.18 125.769 171.297 125.769ZM171.297 104.837C173.419 104.837 175.135 106.558 175.135 108.675C175.135 110.797 173.414 112.513 171.297 112.513C169.175 112.513 167.459 110.792 167.459 108.675C167.459 106.553 169.18 104.837 171.297 104.837ZM171.297 83.9046C173.419 83.9046 175.135 85.626 175.135 87.7428C175.135 89.8645 173.414 91.581 171.297 91.581C169.175 91.581 167.459 89.8595 167.459 87.7428C167.459 85.621 169.18 83.9046 171.297 83.9046ZM171.297 62.9722C173.419 62.9722 175.135 64.6937 175.135 66.8104C175.135 68.9322 173.414 70.6486 171.297 70.6486C169.175 70.6486 167.459 68.9272 167.459 66.8104C167.459 64.6887 169.18 62.9722 171.297 62.9722ZM171.297 42.0399C173.419 42.0399 175.135 43.7613 175.135 45.8781C175.135 47.9998 173.414 49.7162 171.297 49.7162C169.175 49.7162 167.459 47.9948 167.459 45.8781C167.459 43.7563 169.18 42.0399 171.297 42.0399ZM171.297 21.1075C173.419 21.1075 175.135 22.8289 175.135 24.9457C175.135 27.0675 173.414 28.7839 171.297 28.7839C169.175 28.7839 167.459 27.0624 167.459 24.9457C167.459 22.8239 169.18 21.1075 171.297 21.1075ZM171.297 0.175145C173.419 0.175145 175.135 1.89657 175.135 4.01333C175.135 6.13509 173.414 7.85151 171.297 7.85151C169.175 7.85151 167.459 6.13008 167.459 4.01333C167.459 1.89157 169.18 0.175145 171.297 0.175145ZM150.365 209.474C152.486 209.474 154.203 211.195 154.203 213.312C154.203 215.434 152.481 217.15 150.365 217.15C148.243 217.15 146.527 215.429 146.527 213.312C146.527 211.19 148.248 209.474 150.365 209.474ZM150.365 188.541C152.486 188.541 154.203 190.263 154.203 192.38C154.203 194.501 152.481 196.218 150.365 196.218C148.243 196.218 146.527 194.496 146.527 192.38C146.527 190.258 148.248 188.541 150.365 188.541ZM150.365 167.609C152.486 167.609 154.203 169.33 154.203 171.447C154.203 173.569 152.481 175.285 150.365 175.285C148.243 175.285 146.527 173.564 146.527 171.447C146.527 169.325 148.248 167.609 150.365 167.609ZM150.365 146.677C152.486 146.677 154.203 148.398 154.203 150.515C154.203 152.637 152.481 154.353 150.365 154.353C148.243 154.353 146.527 152.632 146.527 150.515C146.527 148.393 148.248 146.677 150.365 146.677ZM150.365 125.744C152.486 125.744 154.203 127.466 154.203 129.582C154.203 131.704 152.481 133.421 150.365 133.421C148.243 133.421 146.527 131.699 146.527 129.582C146.527 127.461 148.248 125.744 150.365 125.744ZM150.365 104.812C152.486 104.812 154.203 106.533 154.203 108.65C154.203 110.772 152.481 112.488 150.365 112.488C148.243 112.488 146.527 110.767 146.527 108.65C146.527 106.528 148.248 104.812 150.365 104.812ZM150.365 83.8796C152.486 83.8796 154.203 85.601 154.203 87.7178C154.203 89.8395 152.481 91.5559 150.365 91.5559C148.243 91.5559 146.527 89.8345 146.527 87.7178C146.527 85.596 148.248 83.8796 150.365 83.8796ZM150.365 62.9472C152.486 62.9472 154.203 64.6686 154.203 66.7854C154.203 68.9072 152.481 70.6236 150.365 70.6236C148.243 70.6236 146.527 68.9022 146.527 66.7854C146.527 64.6636 148.248 62.9472 150.365 62.9472ZM150.365 42.0149C152.486 42.0149 154.203 43.7363 154.203 45.853C154.203 47.9748 152.481 49.6912 150.365 49.6912C148.243 49.6912 146.527 47.9698 146.527 45.853C146.527 43.7313 148.248 42.0149 150.365 42.0149ZM150.365 21.0825C152.486 21.0825 154.203 22.8039 154.203 24.9207C154.203 27.0424 152.481 28.7589 150.365 28.7589C148.243 28.7589 146.527 27.0374 146.527 24.9207C146.527 22.7989 148.248 21.0825 150.365 21.0825ZM150.365 0.150125C152.486 0.150125 154.203 1.87155 154.203 3.98831C154.203 6.11007 152.481 7.82649 150.365 7.82649C148.243 7.82649 146.527 6.10506 146.527 3.98831C146.527 1.86655 148.248 0.150125 150.365 0.150125ZM129.432 209.449C131.554 209.449 133.271 211.17 133.271 213.287C133.271 215.409 131.549 217.125 129.432 217.125C127.311 217.125 125.594 215.404 125.594 213.287C125.594 211.165 127.316 209.449 129.432 209.449ZM129.432 188.516C131.554 188.516 133.271 190.238 133.271 192.355C133.271 194.476 131.549 196.193 129.432 196.193C127.311 196.193 125.594 194.471 125.594 192.355C125.594 190.233 127.316 188.516 129.432 188.516ZM129.432 167.584C131.554 167.584 133.271 169.305 133.271 171.422C133.271 173.544 131.549 175.26 129.432 175.26C127.311 175.26 125.594 173.539 125.594 171.422C125.594 169.3 127.316 167.584 129.432 167.584ZM129.432 146.652C131.554 146.652 133.271 148.373 133.271 150.49C133.271 152.612 131.549 154.328 129.432 154.328C127.311 154.328 125.594 152.607 125.594 150.49C125.594 148.368 127.316 146.652 129.432 146.652ZM129.432 125.719C131.554 125.719 133.271 127.441 133.271 129.557C133.271 131.679 131.549 133.396 129.432 133.396C127.311 133.396 125.594 131.674 125.594 129.557C125.594 127.436 127.316 125.719 129.432 125.719ZM129.432 104.787C131.554 104.787 133.271 106.508 133.271 108.625C133.271 110.747 131.549 112.463 129.432 112.463C127.311 112.463 125.594 110.742 125.594 108.625C125.594 106.503 127.316 104.787 129.432 104.787ZM129.432 83.8546C131.554 83.8546 133.271 85.576 133.271 87.6927C133.271 89.8145 131.549 91.5309 129.432 91.5309C127.311 91.5309 125.594 89.8095 125.594 87.6927C125.594 85.571 127.316 83.8546 129.432 83.8546ZM129.432 62.9222C131.554 62.9222 133.271 64.6436 133.271 66.7604C133.271 68.8821 131.549 70.5986 129.432 70.5986C127.311 70.5986 125.594 68.8771 125.594 66.7604C125.594 64.6386 127.316 62.9222 129.432 62.9222ZM129.432 41.9898C131.554 41.9898 133.271 43.7113 133.271 45.828C133.271 47.9498 131.549 49.6662 129.432 49.6662C127.311 49.6662 125.594 47.9448 125.594 45.828C125.594 43.7063 127.316 41.9898 129.432 41.9898ZM129.432 21.0575C131.554 21.0575 133.271 22.7789 133.271 24.8957C133.271 27.0174 131.549 28.7338 129.432 28.7338C127.311 28.7338 125.594 27.0124 125.594 24.8957C125.594 22.7739 127.316 21.0575 129.432 21.0575ZM129.432 0.125104C131.554 0.125104 133.271 1.84653 133.271 3.96329C133.271 6.08505 131.549 7.80147 129.432 7.80147C127.311 7.80147 125.594 6.08004 125.594 3.96329C125.594 1.84153 127.316 0.125104 129.432 0.125104ZM108.5 209.424C110.622 209.424 112.338 211.145 112.338 213.262C112.338 215.384 110.617 217.1 108.5 217.1C106.378 217.1 104.662 215.379 104.662 213.262C104.662 211.14 106.383 209.424 108.5 209.424ZM108.5 188.491C110.622 188.491 112.338 190.213 112.338 192.33C112.338 194.451 110.617 196.168 108.5 196.168C106.378 196.168 104.662 194.446 104.662 192.33C104.662 190.208 106.383 188.491 108.5 188.491ZM108.5 167.559C110.622 167.559 112.338 169.28 112.338 171.397C112.338 173.519 110.617 175.235 108.5 175.235C106.378 175.235 104.662 173.514 104.662 171.397C104.662 169.275 106.383 167.559 108.5 167.559ZM108.5 146.627C110.622 146.627 112.338 148.348 112.338 150.465C112.338 152.587 110.617 154.303 108.5 154.303C106.378 154.303 104.662 152.582 104.662 150.465C104.662 148.343 106.383 146.627 108.5 146.627ZM108.5 125.694C110.622 125.694 112.338 127.416 112.338 129.532C112.338 131.654 110.617 133.371 108.5 133.371C106.378 133.371 104.662 131.649 104.662 129.532C104.662 127.411 106.383 125.694 108.5 125.694ZM108.5 104.762C110.622 104.762 112.338 106.483 112.338 108.6C112.338 110.722 110.617 112.438 108.5 112.438C106.378 112.438 104.662 110.717 104.662 108.6C104.662 106.478 106.383 104.762 108.5 104.762ZM108.5 83.8295C110.622 83.8295 112.338 85.551 112.338 87.6677C112.338 89.7895 110.617 91.5059 108.5 91.5059C106.378 91.5059 104.662 89.7845 104.662 87.6677C104.662 85.546 106.383 83.8295 108.5 83.8295ZM108.5 62.8972C110.622 62.8972 112.338 64.6186 112.338 66.7354C112.338 68.8571 110.617 70.5735 108.5 70.5735C106.378 70.5735 104.662 68.8521 104.662 66.7354C104.662 64.6136 106.383 62.8972 108.5 62.8972ZM108.5 41.9648C110.622 41.9648 112.338 43.6862 112.338 45.803C112.338 47.9248 110.617 49.6412 108.5 49.6412C106.378 49.6412 104.662 47.9197 104.662 45.803C104.662 43.6812 106.383 41.9648 108.5 41.9648ZM108.5 21.0324C110.622 21.0324 112.338 22.7539 112.338 24.8706C112.338 26.9924 110.617 28.7088 108.5 28.7088C106.378 28.7088 104.662 26.9874 104.662 24.8706C104.662 22.7489 106.383 21.0324 108.5 21.0324ZM108.5 0.100083C110.622 0.100083 112.338 1.82151 112.338 3.93827C112.338 6.06003 110.617 7.77645 108.5 7.77645C106.378 7.77645 104.662 6.05502 104.662 3.93827C104.662 1.81651 106.383 0.100083 108.5 0.100083ZM87.5676 209.399C89.6894 209.399 91.4058 211.12 91.4058 213.237C91.4058 215.359 89.6844 217.075 87.5676 217.075C85.4459 217.075 83.7295 215.354 83.7295 213.237C83.7295 211.115 85.4509 209.399 87.5676 209.399ZM87.5676 188.466C89.6894 188.466 91.4058 190.188 91.4058 192.305C91.4058 194.426 89.6844 196.143 87.5676 196.143C85.4459 196.143 83.7295 194.421 83.7295 192.305C83.7295 190.183 85.4509 188.466 87.5676 188.466ZM87.5676 167.534C89.6894 167.534 91.4058 169.255 91.4058 171.372C91.4058 173.494 89.6844 175.21 87.5676 175.21C85.4459 175.21 83.7295 173.489 83.7295 171.372C83.7295 169.25 85.4509 167.534 87.5676 167.534ZM87.5676 146.602C89.6894 146.602 91.4058 148.323 91.4058 150.44C91.4058 152.562 89.6844 154.278 87.5676 154.278C85.4459 154.278 83.7295 152.557 83.7295 150.44C83.7295 148.318 85.4509 146.602 87.5676 146.602ZM87.5676 125.669C89.6894 125.669 91.4058 127.391 91.4058 129.507C91.4058 131.629 89.6844 133.346 87.5676 133.346C85.4459 133.346 83.7295 131.624 83.7295 129.507C83.7295 127.386 85.4509 125.669 87.5676 125.669ZM87.5676 104.737C89.6894 104.737 91.4058 106.458 91.4058 108.575C91.4058 110.697 89.6844 112.413 87.5676 112.413C85.4459 112.413 83.7295 110.692 83.7295 108.575C83.7295 106.453 85.4509 104.737 87.5676 104.737ZM87.5676 83.8045C89.6894 83.8045 91.4058 85.5259 91.4058 87.6427C91.4058 89.7645 89.6844 91.4809 87.5676 91.4809C85.4459 91.4809 83.7295 89.7595 83.7295 87.6427C83.7295 85.5209 85.4509 83.8045 87.5676 83.8045ZM87.5676 62.8722C89.6894 62.8722 91.4058 64.5936 91.4058 66.7103C91.4058 68.8321 89.6844 70.5485 87.5676 70.5485C85.4459 70.5485 83.7295 68.8271 83.7295 66.7103C83.7295 64.5886 85.4509 62.8722 87.5676 62.8722ZM87.5676 41.9398C89.6894 41.9398 91.4058 43.6612 91.4058 45.778C91.4058 47.8997 89.6844 49.6162 87.5676 49.6162C85.4459 49.6162 83.7295 47.8947 83.7295 45.778C83.7295 43.6562 85.4509 41.9398 87.5676 41.9398ZM87.5676 21.0074C89.6894 21.0074 91.4058 22.7289 91.4058 24.8456C91.4058 26.9674 89.6844 28.6838 87.5676 28.6838C85.4459 28.6838 83.7295 26.9624 83.7295 24.8456C83.7295 22.7239 85.4509 21.0074 87.5676 21.0074ZM87.5676 0.0750623C89.6894 0.0750623 91.4058 1.79649 91.4058 3.91325C91.4058 6.03501 89.6844 7.75143 87.5676 7.75143C85.4459 7.75143 83.7295 6.03 83.7295 3.91325C83.7295 1.79149 85.4509 0.0750623 87.5676 0.0750623ZM66.6353 209.374C68.757 209.374 70.4735 211.095 70.4735 213.212C70.4735 215.334 68.752 217.05 66.6353 217.05C64.5135 217.05 62.7971 215.329 62.7971 213.212C62.7971 211.09 64.5185 209.374 66.6353 209.374ZM66.6353 188.441C68.757 188.441 70.4735 190.163 70.4735 192.279C70.4735 194.401 68.752 196.118 66.6353 196.118C64.5135 196.118 62.7971 194.396 62.7971 192.279C62.7971 190.158 64.5185 188.441 66.6353 188.441ZM66.6353 167.509C68.757 167.509 70.4735 169.23 70.4735 171.347C70.4735 173.469 68.752 175.185 66.6353 175.185C64.5135 175.185 62.7971 173.464 62.7971 171.347C62.7971 169.225 64.5185 167.509 66.6353 167.509ZM66.6353 146.577C68.757 146.577 70.4735 148.298 70.4735 150.415C70.4735 152.537 68.752 154.253 66.6353 154.253C64.5135 154.253 62.7971 152.532 62.7971 150.415C62.7971 148.293 64.5185 146.577 66.6353 146.577ZM66.6353 125.644C68.757 125.644 70.4735 127.366 70.4735 129.482C70.4735 131.604 68.752 133.321 66.6353 133.321C64.5135 133.321 62.7971 131.599 62.7971 129.482C62.7971 127.361 64.5185 125.644 66.6353 125.644ZM66.6353 104.712C68.757 104.712 70.4735 106.433 70.4735 108.55C70.4735 110.672 68.752 112.388 66.6353 112.388C64.5135 112.388 62.7971 110.667 62.7971 108.55C62.7971 106.428 64.5185 104.712 66.6353 104.712ZM66.6353 83.7795C68.757 83.7795 70.4735 85.5009 70.4735 87.6177C70.4735 89.7394 68.752 91.4559 66.6353 91.4559C64.5135 91.4559 62.7971 89.7344 62.7971 87.6177C62.7971 85.4959 64.5185 83.7795 66.6353 83.7795ZM66.6353 62.8471C68.757 62.8471 70.4735 64.5686 70.4735 66.6853C70.4735 68.8071 68.752 70.5235 66.6353 70.5235C64.5135 70.5235 62.7971 68.8021 62.7971 66.6853C62.7971 64.5636 64.5185 62.8471 66.6353 62.8471ZM66.6353 41.9148C68.757 41.9148 70.4735 43.6362 70.4735 45.753C70.4735 47.8747 68.752 49.5911 66.6353 49.5911C64.5135 49.5911 62.7971 47.8697 62.7971 45.753C62.7971 43.6312 64.5185 41.9148 66.6353 41.9148ZM66.6353 20.9824C68.757 20.9824 70.4735 22.7038 70.4735 24.8206C70.4735 26.9423 68.752 28.6588 66.6353 28.6588C64.5135 28.6588 62.7971 26.9373 62.7971 24.8206C62.7971 22.6988 64.5185 20.9824 66.6353 20.9824ZM66.6353 0.0500415C68.757 0.0500415 70.4735 1.77147 70.4735 3.88823C70.4735 6.00998 68.752 7.72641 66.6353 7.72641C64.5135 7.72641 62.7971 6.00498 62.7971 3.88823C62.7971 1.76647 64.5185 0.0500415 66.6353 0.0500415ZM45.7029 209.349C47.8247 209.349 49.5411 211.07 49.5411 213.187C49.5411 215.309 47.8197 217.025 45.7029 217.025C43.5812 217.025 41.8647 215.304 41.8647 213.187C41.8647 211.065 43.5862 209.349 45.7029 209.349ZM45.7029 188.416C47.8247 188.416 49.5411 190.138 49.5411 192.254C49.5411 194.376 47.8197 196.093 45.7029 196.093C43.5812 196.093 41.8647 194.371 41.8647 192.254C41.8647 190.133 43.5862 188.416 45.7029 188.416ZM45.7029 167.484C47.8247 167.484 49.5411 169.205 49.5411 171.322C49.5411 173.444 47.8197 175.16 45.7029 175.16C43.5812 175.16 41.8647 173.439 41.8647 171.322C41.8647 169.2 43.5862 167.484 45.7029 167.484ZM45.7029 146.552C47.8247 146.552 49.5411 148.273 49.5411 150.39C49.5411 152.512 47.8197 154.228 45.7029 154.228C43.5812 154.228 41.8647 152.507 41.8647 150.39C41.8647 148.268 43.5862 146.552 45.7029 146.552ZM45.7029 125.619C47.8247 125.619 49.5411 127.341 49.5411 129.457C49.5411 131.579 47.8197 133.296 45.7029 133.296C43.5812 133.296 41.8647 131.574 41.8647 129.457C41.8647 127.336 43.5862 125.619 45.7029 125.619ZM45.7029 104.687C47.8247 104.687 49.5411 106.408 49.5411 108.525C49.5411 110.647 47.8197 112.363 45.7029 112.363C43.5812 112.363 41.8647 110.642 41.8647 108.525C41.8647 106.403 43.5862 104.687 45.7029 104.687ZM45.7029 83.7545C47.8247 83.7545 49.5411 85.4759 49.5411 87.5927C49.5411 89.7144 47.8197 91.4308 45.7029 91.4308C43.5812 91.4308 41.8647 89.7094 41.8647 87.5927C41.8647 85.4709 43.5862 83.7545 45.7029 83.7545ZM45.7029 62.8221C47.8247 62.8221 49.5411 64.5435 49.5411 66.6603C49.5411 68.7821 47.8197 70.4985 45.7029 70.4985C43.5812 70.4985 41.8647 68.7771 41.8647 66.6603C41.8647 64.5385 43.5862 62.8221 45.7029 62.8221ZM45.7029 41.8897C47.8247 41.8897 49.5411 43.6112 49.5411 45.7279C49.5411 47.8497 47.8197 49.5661 45.7029 49.5661C43.5812 49.5661 41.8647 47.8447 41.8647 45.7279C41.8647 43.6062 43.5862 41.8897 45.7029 41.8897ZM45.7029 20.9574C47.8247 20.9574 49.5411 22.6788 49.5411 24.7956C49.5411 26.9173 47.8197 28.6338 45.7029 28.6338C43.5812 28.6338 41.8647 26.9123 41.8647 24.7956C41.8647 22.6738 43.5862 20.9574 45.7029 20.9574ZM45.7029 0.0250208C47.8247 0.0250208 49.5411 1.74645 49.5411 3.8632C49.5411 5.98496 47.8197 7.70139 45.7029 7.70139C43.5812 7.70139 41.8647 5.97996 41.8647 3.8632C41.8647 1.74144 43.5862 0.0250208 45.7029 0.0250208ZM24.7705 209.324C26.8923 209.324 28.6087 211.045 28.6087 213.162C28.6087 215.284 26.8873 217 24.7705 217C22.6488 217 20.9324 215.279 20.9324 213.162C20.9324 211.04 22.6538 209.324 24.7705 209.324ZM24.7705 188.391C26.8923 188.391 28.6087 190.113 28.6087 192.229C28.6087 194.351 26.8873 196.068 24.7705 196.068C22.6488 196.068 20.9324 194.346 20.9324 192.229C20.9324 190.108 22.6538 188.391 24.7705 188.391ZM24.7705 167.459C26.8923 167.459 28.6087 169.18 28.6087 171.297C28.6087 173.419 26.8873 175.135 24.7705 175.135C22.6488 175.135 20.9324 173.414 20.9324 171.297C20.9324 169.175 22.6538 167.459 24.7705 167.459ZM24.7705 146.527C26.8923 146.527 28.6087 148.248 28.6087 150.365C28.6087 152.486 26.8873 154.203 24.7705 154.203C22.6488 154.203 20.9324 152.481 20.9324 150.365C20.9324 148.243 22.6538 146.527 24.7705 146.527ZM24.7705 125.594C26.8923 125.594 28.6087 127.316 28.6087 129.432C28.6087 131.554 26.8873 133.271 24.7705 133.271C22.6488 133.271 20.9324 131.549 20.9324 129.432C20.9324 127.311 22.6538 125.594 24.7705 125.594ZM24.7705 104.662C26.8923 104.662 28.6087 106.383 28.6087 108.5C28.6087 110.622 26.8873 112.338 24.7705 112.338C22.6488 112.338 20.9324 110.617 20.9324 108.5C20.9324 106.378 22.6538 104.662 24.7705 104.662ZM24.7705 83.7295C26.8923 83.7295 28.6087 85.4509 28.6087 87.5676C28.6087 89.6894 26.8873 91.4058 24.7705 91.4058C22.6488 91.4058 20.9324 89.6844 20.9324 87.5676C20.9324 85.4459 22.6538 83.7295 24.7705 83.7295ZM24.7705 62.7971C26.8923 62.7971 28.6087 64.5185 28.6087 66.6353C28.6087 68.757 26.8873 70.4735 24.7705 70.4735C22.6488 70.4735 20.9324 68.752 20.9324 66.6353C20.9324 64.5135 22.6538 62.7971 24.7705 62.7971ZM24.7705 41.8647C26.8923 41.8647 28.6087 43.5862 28.6087 45.7029C28.6087 47.8247 26.8873 49.5411 24.7705 49.5411C22.6488 49.5411 20.9324 47.8197 20.9324 45.7029C20.9324 43.5812 22.6538 41.8647 24.7705 41.8647ZM24.7705 20.9324C26.8923 20.9324 28.6087 22.6538 28.6087 24.7705C28.6087 26.8923 26.8873 28.6087 24.7705 28.6087C22.6488 28.6087 20.9324 26.8873 20.9324 24.7705C20.9324 22.6488 22.6538 20.9324 24.7705 20.9324ZM24.7705 0C26.8923 0 28.6087 1.72143 28.6087 3.83818C28.6087 5.95994 26.8873 7.67637 24.7705 7.67637C22.6488 7.67637 20.9324 5.95494 20.9324 3.83818C20.9324 1.71642 22.6538 0 24.7705 0ZM3.83818 209.299C5.95994 209.299 7.67637 211.02 7.67637 213.137C7.67637 215.259 5.95494 216.975 3.83818 216.975C1.71642 216.975 0 215.254 0 213.137C0 211.015 1.72143 209.299 3.83818 209.299ZM3.83818 188.366C5.95994 188.366 7.67637 190.088 7.67637 192.204C7.67637 194.326 5.95494 196.043 3.83818 196.043C1.71642 196.043 0 194.321 0 192.204C0 190.083 1.72143 188.366 3.83818 188.366ZM3.83818 167.434C5.95994 167.434 7.67637 169.155 7.67637 171.272C7.67637 173.394 5.95494 175.11 3.83818 175.11C1.71642 175.11 0 173.389 0 171.272C0 169.15 1.72143 167.434 3.83818 167.434ZM3.83818 146.502C5.95994 146.502 7.67637 148.223 7.67637 150.34C7.67637 152.461 5.95494 154.178 3.83818 154.178C1.71642 154.178 0 152.456 0 150.34C0 148.218 1.72143 146.502 3.83818 146.502ZM3.83818 125.569C5.95994 125.569 7.67637 127.291 7.67637 129.407C7.67637 131.529 5.95494 133.246 3.83818 133.246C1.71642 133.246 0 131.524 0 129.407C0 127.286 1.72143 125.569 3.83818 125.569ZM3.83818 104.637C5.95994 104.637 7.67637 106.358 7.67637 108.475C7.67637 110.597 5.95494 112.313 3.83818 112.313C1.71642 112.313 0 110.592 0 108.475C0 106.353 1.72143 104.637 3.83818 104.637ZM3.83818 83.7044C5.95994 83.7044 7.67637 85.4259 7.67637 87.5426C7.67637 89.6644 5.95494 91.3808 3.83818 91.3808C1.71642 91.3808 0 89.6594 0 87.5426C0 85.4209 1.72143 83.7044 3.83818 83.7044ZM3.83818 62.7721C5.95994 62.7721 7.67637 64.4935 7.67637 66.6103C7.67637 68.732 5.95494 70.4484 3.83818 70.4484C1.71642 70.4484 0 68.727 0 66.6103C0 64.4885 1.72143 62.7721 3.83818 62.7721ZM3.83818 41.8397C5.95994 41.8397 7.67637 43.5611 7.67637 45.6779C7.67637 47.7996 5.95494 49.5161 3.83818 49.5161C1.71642 49.5161 0 47.7946 0 45.6779C0 43.5561 1.72143 41.8397 3.83818 41.8397ZM3.83818 20.9073C5.95994 20.9073 7.67637 22.6288 7.67637 24.7455C7.67637 26.8673 5.95494 28.5837 3.83818 28.5837C1.71642 28.5837 0 26.8623 0 24.7455C0 22.6238 1.72143 20.9073 3.83818 20.9073Z" fill="#EDEDED"/>
</svg>
