<svg width="325" height="325" viewBox="0 0 325 325" fill="none" xmlns="http://www.w3.org/2000/svg">
<path fill-rule="evenodd" clip-rule="evenodd" d="M63.8219 100.757L100.757 63.8219C102.718 62.5927 104.709 61.4334 106.725 60.3313L60.3313 106.725C61.4328 104.71 62.5921 102.718 63.8219 100.757V100.757ZM218.268 264.662L264.662 218.268C263.561 220.283 262.401 222.275 261.171 224.236L224.236 261.171C222.275 262.4 220.284 263.56 218.268 264.662V264.662ZM201.348 272.219L272.219 201.348C271.749 202.678 271.251 203.998 270.732 205.313L205.313 270.732C203.998 271.251 202.678 271.749 201.348 272.219ZM188.198 276.006L276.007 188.197C275.761 189.289 275.497 190.377 275.219 191.463L191.464 275.218C190.378 275.495 189.29 275.759 188.199 276.006L188.198 276.006ZM176.858 277.983L277.983 176.858C277.865 177.816 277.734 178.773 277.591 179.728L179.727 277.592C178.772 277.734 177.815 277.865 176.858 277.984L176.858 277.983ZM166.691 278.788L278.788 166.69C278.758 167.557 278.717 168.423 278.666 169.29L169.289 278.667C168.423 278.717 167.557 278.758 166.69 278.789L166.691 278.788ZM157.361 278.755L278.755 157.361C278.79 158.158 278.821 158.957 278.839 159.754L159.755 278.839C158.957 278.82 158.159 278.79 157.362 278.754L157.361 278.755ZM148.698 278.055L278.055 148.699C278.143 149.443 278.222 150.189 278.296 150.935L150.934 278.296C150.188 278.222 149.443 278.144 148.698 278.055V278.055ZM140.59 276.8L276.8 140.59C276.934 141.289 277.06 141.988 277.18 142.687L142.688 277.18C141.988 277.059 141.289 276.932 140.591 276.799L140.59 276.8ZM132.955 275.072L275.072 132.956C275.244 133.612 275.416 134.27 275.575 134.93L134.928 275.577C134.269 275.417 133.611 275.245 132.955 275.073L132.955 275.072ZM125.733 272.932L272.931 125.734C273.138 126.356 273.34 126.981 273.536 127.607L127.606 273.536C126.981 273.34 126.355 273.139 125.733 272.932V272.932ZM118.882 270.421L270.421 118.881C270.66 119.473 270.888 120.068 271.118 120.662L120.663 271.117C120.068 270.888 119.474 270.659 118.882 270.42L118.882 270.421ZM112.384 267.556L267.556 112.384C267.823 112.944 268.088 113.506 268.346 114.07L114.07 268.346C113.506 268.087 112.944 267.823 112.384 267.556V267.556ZM106.199 264.378L264.379 106.198C264.673 106.732 264.963 107.268 265.249 107.805L107.806 265.248C107.269 264.961 106.732 264.672 106.199 264.377L106.199 264.378ZM100.321 260.893L260.893 100.321C261.214 100.828 261.529 101.338 261.842 101.849L101.85 261.841C101.338 261.529 100.829 261.213 100.321 260.892L100.321 260.893ZM94.7318 257.119L257.119 94.7324C257.464 95.2139 257.813 95.6935 258.15 96.1788L96.1788 258.149C95.6936 257.813 95.214 257.464 94.7325 257.119L94.7318 257.119ZM89.4173 253.071L253.07 89.4179C253.441 89.8754 253.806 90.3361 254.167 90.7981L90.7969 254.169C90.3343 253.807 89.8742 253.441 89.4167 253.072L89.4173 253.071ZM84.374 248.751L248.751 84.3746C249.145 84.8089 249.529 85.2482 249.915 85.6875L85.6863 249.916C85.247 249.53 84.8076 249.146 84.3734 248.752L84.374 248.751ZM79.6001 244.163L244.163 79.6C244.371 79.8058 244.583 80.0041 244.79 80.2112C244.997 80.4183 245.196 80.6297 245.401 80.8387L80.8387 245.401C80.6304 245.195 80.4183 244.997 80.2112 244.79C80.0042 244.583 79.8053 244.371 79.6001 244.163V244.163ZM75.0855 239.314L239.314 75.0854C239.753 75.4712 240.193 75.857 240.627 76.2498L76.2505 240.627C75.8571 240.192 75.4719 239.752 75.0861 239.314L75.0855 239.314ZM70.8333 234.204L234.204 70.8333C234.666 71.1952 235.127 71.5609 235.584 71.9303L71.931 235.583C71.5603 235.126 71.1952 234.665 70.8339 234.203L70.8333 234.204ZM66.8518 228.822L228.823 66.8518C229.308 67.1891 229.787 67.5372 230.269 67.8827L67.8821 230.269C67.536 229.787 67.1892 229.308 66.8512 228.823L66.8518 228.822ZM63.1598 223.152L223.152 63.1591C223.664 63.4719 224.173 63.7873 224.681 64.1083L64.1083 224.68C63.7873 224.173 63.472 223.663 63.1592 223.152L63.1598 223.152ZM59.7529 217.196L217.196 59.7529C217.733 60.0393 218.27 60.3281 218.803 60.6233L60.6227 218.803C60.3282 218.269 60.0387 217.733 59.7523 217.196L59.7529 217.196ZM56.6551 210.931L210.931 56.655C211.495 56.9131 212.056 57.1787 212.618 57.4456L57.4456 212.618C57.1787 212.056 56.9131 211.495 56.6551 210.931V210.931ZM53.8845 204.339L204.339 53.8838C204.934 54.1123 205.528 54.3414 206.12 54.5806L54.5806 206.12C54.3414 205.528 54.113 204.933 53.8839 204.339L53.8845 204.339ZM51.4658 197.395L197.395 51.4651C198.021 51.6615 198.646 51.8622 199.268 52.0693L52.07 199.268C51.8629 198.645 51.6615 198.021 51.4658 197.395V197.395ZM49.4259 190.072L190.073 49.4246C190.732 49.5851 191.39 49.7569 192.047 49.9281L49.9301 192.045C49.7589 191.388 49.5864 190.731 49.4265 190.071L49.4259 190.072ZM47.8216 182.313L182.314 47.821C183.014 47.9418 183.714 48.0676 184.411 48.2011L48.2011 184.411C48.0677 183.712 47.9412 183.013 47.821 182.314L47.8216 182.313ZM46.7057 174.066L174.067 46.705C174.813 46.7793 175.559 46.858 176.303 46.9461L46.9468 176.302C46.8586 175.559 46.7793 174.812 46.7057 174.066V174.066ZM46.1625 165.247L165.247 46.1619C166.045 46.1808 166.843 46.211 167.64 46.2462L46.2462 167.64C46.211 166.843 46.1802 166.045 46.1619 165.247L46.1625 165.247ZM46.335 155.711L155.712 46.3343C156.578 46.284 157.444 46.2437 158.311 46.2122L46.2135 158.31C46.2444 157.443 46.2846 156.577 46.3356 155.711L46.335 155.711ZM47.41 145.274L145.274 47.4093C146.23 47.2671 147.186 47.1362 148.144 47.0172L47.0185 148.142C47.1375 147.185 47.2677 146.228 47.4106 145.273L47.41 145.274ZM49.7828 133.538L133.538 49.7827C134.624 49.5052 135.713 49.2408 136.803 48.9948L48.9942 136.804C49.2396 135.713 49.5046 134.624 49.7822 133.539L49.7828 133.538ZM54.2697 119.688L119.688 54.2697C121.003 53.7504 122.324 53.2519 123.653 52.7824L52.7825 123.653C53.252 122.324 53.7498 121.002 54.2697 119.688V119.688Z" fill="#EDEDED"/>
</svg>
