<svg width="70" height="70" viewBox="0 0 70 70" fill="none" xmlns="http://www.w3.org/2000/svg">
<path d="M64.1665 0H5.83337C2.61324 0.00382812 0.00382812 2.61324 0 5.83337V64.1666C0.00382812 67.3866 2.61324 69.996 5.83337 69.9999H64.1666C67.3866 69.996 69.996 67.3866 70 64.1665V5.83337C69.996 2.61324 67.3866 0.00382812 64.1665 0ZM67.6665 64.1665C67.6665 66.0994 66.0996 67.6665 64.1665 67.6665H5.83337C3.90044 67.6665 2.33337 66.0996 2.33337 64.1665V11.6666H67.6666V64.1665H67.6665ZM67.6665 9.33336H2.33337V5.83337C2.33337 3.90044 3.90044 2.33337 5.83337 2.33337H64.1666C66.0996 2.33337 67.6666 3.90044 67.6666 5.83337V9.33336H67.6665Z" fill="white"/>
<path d="M8.16722 4.6665H7.0006C6.35625 4.6665 5.83398 5.18877 5.83398 5.83312C5.83398 6.47748 6.35625 6.99988 7.0006 6.99988H8.16722C8.81158 6.99988 9.33384 6.47761 9.33384 5.83326C9.33384 5.18891 8.81158 4.6665 8.16722 4.6665Z" fill="white"/>
<path d="M13.276 4.75986C12.9944 4.63148 12.6709 4.63148 12.3894 4.75986C12.248 4.81906 12.1179 4.90191 12.0044 5.00486C11.5532 5.46492 11.5532 6.20142 12.0044 6.66148C12.1179 6.76442 12.248 6.84728 12.3894 6.90647C12.6719 7.03089 12.9936 7.03089 13.276 6.90647C13.4174 6.84728 13.5475 6.76442 13.661 6.66148C14.1122 6.20142 14.1122 5.46492 13.661 5.00486C13.5475 4.90191 13.4174 4.81906 13.276 4.75986Z" fill="white"/>
<path d="M17.9481 4.74888C17.5103 4.56718 17.0061 4.66821 16.6724 5.00481C16.5694 5.11829 16.4866 5.24845 16.4274 5.38981C16.3028 5.67227 16.3028 5.99397 16.4274 6.27643C16.4866 6.4178 16.5694 6.54795 16.6724 6.66143C17.1325 7.1126 17.869 7.1126 18.329 6.66143C18.432 6.54795 18.5148 6.4178 18.574 6.27643C18.6394 6.13794 18.6714 5.98618 18.6674 5.83305C18.6703 5.35919 18.3859 4.93057 17.9481 4.74888Z" fill="white"/>
<path d="M63.0011 4.6665H23.3346C22.6902 4.6665 22.168 5.18877 22.168 5.83312C22.168 6.47748 22.6902 6.99974 23.3346 6.99974H63.0011C63.6455 6.99974 64.1678 6.47748 64.1678 5.83312C64.1678 5.18877 63.6455 4.6665 63.0011 4.6665Z" fill="white"/>
<path d="M17.9122 55.5564C17.9652 55.6052 18.0231 55.6487 18.0849 55.6859C22.4764 60.3548 28.6022 63.0017 35.012 62.9996C41.4218 62.9976 47.5458 60.347 51.9344 55.6754C51.9924 55.6416 52.0471 55.6025 52.0978 55.5587C52.1361 55.505 52.1697 55.448 52.1982 55.3884C60.3852 46.5076 60.3852 32.83 52.1982 23.9492L52.1935 23.9468C52.1651 23.8872 52.1315 23.8302 52.0932 23.7765C52.04 23.727 51.9818 23.6832 51.9194 23.6458C47.5298 18.9807 41.4085 16.3354 35.0028 16.3354C28.5971 16.3354 22.4758 18.9807 18.0862 23.6458C18.0239 23.6831 17.9656 23.727 17.9125 23.7765C17.8742 23.8302 17.8405 23.8872 17.8121 23.9468C9.62513 32.8277 9.62513 46.5052 17.8121 55.3861C17.8404 55.4457 17.8739 55.5027 17.9122 55.5564ZM41.3645 59.6712C43.1578 57.5055 44.5076 55.008 45.337 52.3213V52.3177C46.8026 53.0043 48.1854 53.8551 49.4587 54.854C47.1602 57.052 44.3925 58.6992 41.3645 59.6712ZM51.0689 53.1589C49.5163 51.9134 47.8127 50.8688 45.9985 50.0498C46.7489 47.0328 47.1586 43.9414 47.22 40.8332H55.9408C55.6983 45.3617 53.9881 49.6883 51.0689 53.1589ZM55.9408 38.4998H47.22C47.1585 35.3917 46.7487 32.3001 45.9985 29.2832C47.8125 28.465 49.5162 27.4211 51.0689 26.1764C53.9877 29.6464 55.6978 33.972 55.9408 38.4998ZM49.4589 24.4754C48.1855 25.4743 46.8027 26.3252 45.3371 27.0117C44.5082 24.3236 43.1583 21.825 41.3646 19.6581C44.3925 20.6303 47.1602 22.2775 49.4589 24.4754ZM36.167 18.8299C39.0264 19.5788 41.5557 23.017 43.1495 27.8843C40.898 28.6606 38.5463 29.1081 36.167 29.2131V18.8299ZM36.167 31.5477C38.7628 31.4505 41.3312 30.9791 43.7923 30.1477C44.4542 32.8847 44.8214 35.6847 44.8878 38.4998H36.167V31.5477ZM36.167 40.8332H44.8878C44.8213 43.6476 44.454 46.4467 43.7923 49.183C41.3311 48.3525 38.7628 47.8817 36.167 47.7853V40.8332ZM36.167 50.1198C38.5463 50.2252 40.898 50.6731 43.1495 51.4498C41.5557 56.3171 39.0264 59.7553 36.167 60.5043V50.1198ZM20.5418 54.8507C21.8156 53.8543 23.1984 53.0057 24.6636 52.3214V52.3178C25.493 55.0046 26.8428 57.5021 28.6361 59.6678C25.6082 58.6958 22.8405 57.0486 20.5418 54.8507ZM33.8337 60.5032C30.9743 59.7542 28.445 56.316 26.8513 51.4487C29.1027 50.6724 31.4544 50.2249 33.8337 50.1199V60.5032ZM33.8337 47.7853C31.2379 47.8826 28.6696 48.354 26.2084 49.1853C25.5465 46.4482 25.1793 43.6484 25.1129 40.8332H33.8337V47.7853ZM33.8337 38.4998H25.1129C25.1795 35.6855 25.5467 32.8863 26.2084 30.15C28.6696 30.9806 31.2379 31.4513 33.8337 31.5477V38.4998ZM33.8337 18.8286V29.2131C31.4544 29.1077 29.1027 28.6598 26.8513 27.8831C28.4448 23.0159 30.9741 19.5777 33.8337 18.8286ZM28.6362 19.6547C26.8421 21.8225 25.4923 24.3224 24.6638 27.0117V27.0081C23.1981 26.3215 21.8154 25.4707 20.542 24.4717C22.8405 22.274 25.6082 20.6268 28.6362 19.6547ZM18.9318 26.174C20.4844 27.4195 22.1881 28.4642 24.0022 29.2831C23.2519 32.3001 22.8421 35.3915 22.7807 38.4997H14.0599C14.3024 33.9712 16.0126 29.6446 18.9318 26.174ZM22.7807 40.8332C22.8423 43.9414 23.252 47.033 24.0022 50.0498C22.1882 50.8681 20.4845 51.9119 18.9318 53.1566C16.013 49.6867 14.303 45.3609 14.0599 40.8331H22.7807V40.8332Z" fill="white"/>
</svg>
