<svg width="718" height="333" viewBox="0 0 718 333" fill="none" xmlns="http://www.w3.org/2000/svg">
<path fill-rule="evenodd" clip-rule="evenodd" d="M456.117 108.757L493.052 71.8219C495.012 70.5927 497.004 69.4334 499.02 68.3313L452.626 114.725C453.728 112.71 454.887 110.718 456.117 108.757ZM610.563 272.662L656.957 226.268C655.856 228.283 654.696 230.275 653.466 232.236L616.531 269.171C614.57 270.4 612.579 271.56 610.563 272.662ZM593.643 280.219L664.514 209.348C664.044 210.678 663.546 211.998 663.027 213.313L597.608 278.732C596.293 279.251 594.973 279.749 593.643 280.219ZM580.493 284.006L668.302 196.197C668.056 197.289 667.792 198.377 667.514 199.463L583.759 283.218C582.673 283.495 581.585 283.759 580.494 284.006L580.493 284.006ZM569.153 285.983L670.278 184.858C670.159 185.816 670.029 186.773 669.886 187.728L572.022 285.592C571.067 285.734 570.11 285.865 569.153 285.984L569.153 285.983ZM558.985 286.788L671.083 174.69C671.053 175.557 671.012 176.423 670.961 177.29L561.584 286.667C560.718 286.717 559.852 286.758 558.985 286.789L558.985 286.788ZM549.656 286.755L671.05 165.361C671.085 166.158 671.116 166.957 671.134 167.754L552.05 286.839C551.252 286.82 550.453 286.79 549.657 286.754L549.656 286.755ZM540.993 286.055L670.35 156.699C670.438 157.443 670.517 158.189 670.591 158.935L543.229 286.296C542.483 286.222 541.738 286.144 540.993 286.055ZM532.885 284.8L669.095 148.59C669.229 149.289 669.355 149.988 669.475 150.687L534.983 285.18C534.283 285.059 533.584 284.932 532.886 284.799L532.885 284.8ZM525.25 283.072L667.367 140.956C667.539 141.612 667.711 142.27 667.87 142.93L527.223 283.577C526.564 283.417 525.906 283.245 525.25 283.073L525.25 283.072ZM518.028 280.932L665.226 133.734C665.433 134.356 665.635 134.981 665.831 135.607L519.901 281.536C519.276 281.34 518.65 281.139 518.028 280.932ZM511.176 278.421L662.716 126.881C662.955 127.473 663.183 128.068 663.412 128.662L512.958 279.117C512.363 278.888 511.769 278.659 511.177 278.42L511.176 278.421ZM504.679 275.556L659.851 120.384C660.118 120.944 660.383 121.506 660.641 122.07L506.365 276.346C505.801 276.087 505.239 275.823 504.679 275.556ZM498.494 272.378L656.674 114.198C656.968 114.732 657.258 115.268 657.544 115.805L500.101 273.248C499.564 272.961 499.027 272.672 498.494 272.377L498.494 272.378ZM492.616 268.893L653.188 108.321C653.509 108.828 653.824 109.338 654.137 109.849L494.145 269.841C493.633 269.529 493.124 269.213 492.616 268.892L492.616 268.893ZM487.027 265.119L649.414 102.732C649.759 103.214 650.108 103.694 650.444 104.179L488.474 266.149C487.988 265.813 487.509 265.464 487.027 265.119L487.027 265.119ZM481.712 261.071L645.365 97.4179C645.736 97.8754 646.101 98.3361 646.462 98.7981L483.092 262.169C482.629 261.807 482.169 261.441 481.712 261.072L481.712 261.071ZM476.669 256.751L641.046 92.3746C641.44 92.8089 641.824 93.2482 642.21 93.6875L477.981 257.916C477.542 257.53 477.103 257.146 476.668 256.752L476.669 256.751ZM471.895 252.163L636.458 87.6C636.666 87.8058 636.878 88.0041 637.085 88.2112C637.292 88.4183 637.491 88.6297 637.696 88.8387L473.134 253.401C472.925 253.195 472.713 252.997 472.506 252.79C472.299 252.583 472.1 252.371 471.895 252.163ZM467.38 247.314L631.609 83.0854C632.048 83.4712 632.488 83.857 632.922 84.2498L468.545 248.627C468.152 248.192 467.767 247.752 467.381 247.314L467.38 247.314ZM463.128 242.204L626.499 78.8333C626.961 79.1952 627.421 79.5609 627.879 79.9303L464.226 243.583C463.855 243.126 463.49 242.665 463.129 242.203L463.128 242.204ZM459.147 236.822L621.117 74.8518C621.603 75.1891 622.082 75.5372 622.564 75.8827L460.177 238.269C459.831 237.787 459.484 237.308 459.146 236.823L459.147 236.822ZM455.455 231.152L615.447 71.1591C615.959 71.4719 616.468 71.7873 616.975 72.1083L456.403 232.68C456.082 232.173 455.767 231.663 455.454 231.152L455.455 231.152ZM452.048 225.196L609.491 67.7529C610.028 68.0393 610.565 68.3281 611.098 68.6233L452.918 226.803C452.623 226.269 452.334 225.733 452.047 225.196L452.048 225.196ZM448.95 218.931L603.226 64.655C603.79 64.9131 604.351 65.1787 604.913 65.4456L449.741 220.618C449.474 220.056 449.208 219.495 448.95 218.931ZM446.179 212.339L596.634 61.8838C597.229 62.1123 597.823 62.3414 598.415 62.5806L446.876 214.12C446.636 213.528 446.408 212.933 446.179 212.339L446.179 212.339ZM443.761 205.395L589.69 59.4651C590.316 59.6615 590.941 59.8622 591.563 60.0693L444.365 207.268C444.158 206.645 443.956 206.021 443.761 205.395ZM441.721 198.072L582.368 57.4246C583.027 57.5851 583.685 57.7569 584.342 57.9281L442.225 200.045C442.054 199.388 441.881 198.731 441.721 198.071L441.721 198.072ZM440.117 190.313L574.609 55.821C575.309 55.9418 576.009 56.0676 576.706 56.2011L440.496 192.411C440.363 191.712 440.236 191.013 440.116 190.314L440.117 190.313ZM439.001 182.066L566.362 54.705C567.108 54.7793 567.854 54.858 568.598 54.9461L439.242 184.302C439.154 183.559 439.074 182.812 439.001 182.066ZM438.457 173.247L557.542 54.1619C558.34 54.1808 559.138 54.211 559.935 54.2462L438.541 175.64C438.506 174.843 438.475 174.045 438.457 173.247L438.457 173.247ZM438.63 163.711L548.007 54.3343C548.873 54.284 549.739 54.2437 550.606 54.2122L438.508 166.31C438.539 165.443 438.58 164.577 438.631 163.711L438.63 163.711ZM439.705 153.274L537.569 55.4093C538.525 55.2671 539.481 55.1362 540.439 55.0172L439.313 156.142C439.432 155.185 439.563 154.228 439.706 153.273L439.705 153.274ZM442.078 141.538L525.833 57.7827C526.919 57.5052 528.008 57.2408 529.098 56.9948L441.289 144.804C441.535 143.713 441.8 142.624 442.077 141.539L442.078 141.538ZM446.565 127.688L511.983 62.2697C513.298 61.7504 514.619 61.2519 515.948 60.7824L445.077 131.653C445.547 130.324 446.045 129.002 446.565 127.688Z" fill="#EDEDED"/>
<path fill-rule="evenodd" clip-rule="evenodd" d="M46.1073 50.7694C48.1686 50.2664 50.2442 51.5319 50.746 53.5883C51.249 55.6496 49.9835 57.7252 47.9271 58.227C45.8658 58.7299 43.7902 57.4645 43.2884 55.4081C42.7854 53.3468 44.0509 51.2712 46.1073 50.7694ZM299.056 204.486C301.118 203.983 303.193 205.248 303.695 207.304C304.198 209.366 302.932 211.441 300.876 211.943C298.815 212.446 296.739 211.181 296.237 209.124C295.734 207.063 297 204.987 299.056 204.486ZM294.094 184.15C296.155 183.647 298.231 184.912 298.733 186.969C299.236 189.03 297.97 191.106 295.914 191.607C293.853 192.11 291.777 190.845 291.275 188.788C290.772 186.727 292.038 184.652 294.094 184.15ZM289.132 163.814C291.193 163.311 293.269 164.577 293.77 166.633C294.273 168.694 293.008 170.77 290.952 171.272C288.89 171.775 286.815 170.509 286.313 168.453C285.81 166.392 287.075 164.316 289.132 163.814ZM284.17 143.478C286.231 142.975 288.306 144.241 288.808 146.297C289.311 148.359 288.046 150.434 285.989 150.936C283.928 151.439 281.852 150.174 281.351 148.117C280.848 146.056 282.113 143.98 284.17 143.478ZM279.207 123.143C281.269 122.64 283.344 123.905 283.846 125.962C284.349 128.023 283.084 130.099 281.027 130.6C278.966 131.103 276.89 129.838 276.388 127.781C275.885 125.72 277.151 123.645 279.207 123.143V123.143ZM274.245 102.807C276.306 102.304 278.382 103.57 278.884 105.626C279.387 107.687 278.121 109.763 276.065 110.265C274.004 110.768 271.928 109.502 271.426 107.446C270.923 105.384 272.189 103.309 274.245 102.807ZM269.283 82.4714C271.344 81.9684 273.42 83.2339 273.922 85.2903C274.424 87.3516 273.159 89.4272 271.103 89.929C269.041 90.4319 266.966 89.1665 266.464 87.1101C265.961 85.0488 267.226 82.9732 269.283 82.4714ZM264.321 62.1357C266.382 61.6327 268.457 62.8982 268.959 64.9546C269.462 67.0159 268.197 69.0915 266.14 69.5933C264.079 70.0963 262.004 68.8308 261.502 66.7744C260.999 64.7131 262.264 62.6375 264.321 62.1357ZM259.358 41.8C261.42 41.2971 263.495 42.5625 263.997 44.6189C264.5 46.6802 263.235 48.7558 261.178 49.2576C259.117 49.7606 257.041 48.4951 256.539 46.4387C256.037 44.3774 257.302 42.3018 259.358 41.8ZM254.396 21.4644C256.457 20.9614 258.533 22.2268 259.035 24.2833C259.538 26.3445 258.272 28.4201 256.216 28.9219C254.155 29.4249 252.079 28.1594 251.577 26.103C251.074 24.0417 252.34 21.9662 254.396 21.4644ZM249.434 1.12867C251.495 0.625687 253.571 1.89115 254.073 3.94757C254.576 6.00885 253.31 8.08443 251.254 8.58622C249.192 9.08921 247.117 7.82375 246.615 5.76733C246.112 3.70605 247.378 1.63047 249.434 1.12867ZM278.715 209.423C280.776 208.92 282.852 210.186 283.353 212.242C283.856 214.304 282.591 216.379 280.534 216.881C278.473 217.384 276.398 216.119 275.896 214.062C275.393 212.001 276.658 209.925 278.715 209.423ZM273.752 189.088C275.814 188.585 277.889 189.85 278.391 191.907C278.894 193.968 277.629 196.044 275.572 196.545C273.511 197.048 271.435 195.783 270.934 193.726C270.431 191.665 271.696 189.59 273.752 189.088ZM268.79 168.752C270.851 168.249 272.927 169.515 273.429 171.571C273.932 173.632 272.666 175.708 270.61 176.21C268.549 176.713 266.473 175.447 265.971 173.391C265.468 171.329 266.734 169.254 268.79 168.752ZM263.828 148.416C265.889 147.913 267.965 149.179 268.467 151.235C268.97 153.297 267.704 155.372 265.648 155.874C263.586 156.377 261.511 155.111 261.009 153.055C260.506 150.994 261.772 148.918 263.828 148.416ZM258.866 128.081C260.927 127.578 263.003 128.843 263.504 130.9C264.007 132.961 262.742 135.036 260.685 135.538C258.624 136.041 256.549 134.776 256.047 132.719C255.544 130.658 256.809 128.583 258.866 128.081V128.081ZM253.903 107.745C255.965 107.242 258.04 108.507 258.542 110.564C259.045 112.625 257.78 114.701 255.723 115.203C253.662 115.706 251.586 114.44 251.085 112.384C250.582 110.322 251.847 108.247 253.903 107.745ZM248.941 87.4093C251.003 86.9064 253.078 88.1718 253.58 90.2282C254.083 92.2895 252.817 94.3651 250.761 94.8669C248.7 95.3699 246.624 94.1044 246.122 92.048C245.619 89.9867 246.885 87.9111 248.941 87.4093ZM243.979 67.0737C246.04 66.5707 248.116 67.8361 248.618 69.8925C249.121 71.9538 247.855 74.0294 245.799 74.5312C243.737 75.0342 241.662 73.7687 241.16 71.7123C240.657 69.651 241.923 67.5755 243.979 67.0737ZM239.017 46.738C241.078 46.235 243.154 47.5004 243.655 49.5569C244.158 51.6181 242.893 53.6937 240.837 54.1955C238.775 54.6985 236.7 53.433 236.198 51.3766C235.695 49.3153 236.96 47.2398 239.017 46.738ZM234.055 26.4023C236.116 25.8993 238.191 27.1648 238.693 29.2212C239.196 31.2825 237.931 33.358 235.874 33.8598C233.813 34.3628 231.737 33.0974 231.236 31.0409C230.733 28.9797 231.998 26.9041 234.055 26.4023ZM229.092 6.0666C231.154 5.56362 233.229 6.82908 233.731 8.88549C234.234 10.9468 232.968 13.0224 230.912 13.5242C228.851 14.0271 226.775 12.7617 226.273 10.7053C225.77 8.64398 227.036 6.5684 229.092 6.0666ZM258.373 214.361C260.434 213.858 262.51 215.124 263.012 217.18C263.515 219.242 262.249 221.317 260.193 221.819C258.132 222.322 256.056 221.056 255.554 219C255.051 216.939 256.317 214.863 258.373 214.361ZM253.411 194.026C255.472 193.523 257.548 194.788 258.049 196.845C258.552 198.906 257.287 200.981 255.231 201.483C253.169 201.986 251.094 200.721 250.592 198.664C250.089 196.603 251.354 194.527 253.411 194.026ZM248.449 173.69C250.51 173.187 252.585 174.452 253.087 176.509C253.59 178.57 252.325 180.646 250.268 181.148C248.207 181.651 246.131 180.385 245.63 178.329C245.127 176.267 246.392 174.192 248.449 173.69ZM243.486 153.354C245.548 152.851 247.623 154.117 248.125 156.173C248.628 158.234 247.363 160.31 245.306 160.812C243.245 161.315 241.169 160.049 240.667 157.993C240.164 155.932 241.43 153.856 243.486 153.354ZM238.524 133.019C240.585 132.516 242.661 133.781 243.163 135.838C243.666 137.899 242.4 139.974 240.344 140.476C238.283 140.979 236.207 139.714 235.705 137.657C235.202 135.596 236.468 133.52 238.524 133.019V133.019ZM233.562 112.683C235.623 112.18 237.699 113.445 238.201 115.502C238.704 117.563 237.438 119.639 235.382 120.14C233.32 120.643 231.245 119.378 230.743 117.322C230.24 115.26 231.505 113.185 233.562 112.683ZM228.6 92.3473C230.661 91.8443 232.736 93.1097 233.238 95.1662C233.741 97.2274 232.476 99.303 230.419 99.8048C228.358 100.308 226.283 99.0423 225.781 96.9859C225.278 94.9246 226.543 92.8491 228.6 92.3473ZM223.637 72.0116C225.699 71.5086 227.774 72.7741 228.276 74.8305C228.779 76.8918 227.514 78.9673 225.457 79.4691C223.396 79.9721 221.32 78.7067 220.818 76.6502C220.316 74.589 221.581 72.5134 223.637 72.0116ZM218.675 51.6759C220.736 51.1729 222.812 52.4384 223.314 54.4948C223.817 56.5561 222.551 58.6316 220.495 59.1334C218.434 59.6364 216.358 58.371 215.856 56.3146C215.353 54.2533 216.619 52.1777 218.675 51.6759ZM213.713 31.3402C215.774 30.8372 217.85 32.1027 218.352 34.1591C218.855 36.2204 217.589 38.296 215.533 38.7978C213.471 39.3007 211.396 38.0353 210.894 35.9789C210.391 33.9176 211.657 31.842 213.713 31.3402ZM208.751 11.0045C210.812 10.5015 212.888 11.767 213.389 13.8234C213.892 15.8847 212.627 17.9603 210.57 18.4621C208.509 18.9651 206.434 17.6996 205.932 15.6432C205.429 13.5819 206.694 11.5063 208.751 11.0045ZM238.031 219.299C240.093 218.796 242.168 220.062 242.67 222.118C243.173 224.179 241.908 226.255 239.851 226.757C237.79 227.26 235.714 225.994 235.213 223.938C234.71 221.877 235.975 219.801 238.031 219.299ZM233.069 198.964C235.13 198.461 237.206 199.726 237.708 201.783C238.211 203.844 236.945 205.919 234.889 206.421C232.828 206.924 230.752 205.659 230.25 203.602C229.747 201.541 231.013 199.465 233.069 198.964ZM228.107 178.628C230.168 178.125 232.244 179.39 232.746 181.447C233.249 183.508 231.983 185.584 229.927 186.085C227.865 186.588 225.79 185.323 225.288 183.267C224.785 181.205 226.051 179.13 228.107 178.628ZM223.145 158.292C225.206 157.789 227.282 159.055 227.783 161.111C228.286 163.172 227.021 165.248 224.964 165.75C222.903 166.253 220.828 164.987 220.326 162.931C219.823 160.87 221.088 158.794 223.145 158.292ZM218.182 137.957C220.244 137.454 222.319 138.719 222.821 140.775C223.324 142.837 222.059 144.912 220.002 145.414C217.941 145.917 215.865 144.652 215.364 142.595C214.861 140.534 216.126 138.458 218.182 137.957V137.957ZM213.22 117.621C215.282 117.118 217.357 118.383 217.859 120.44C218.362 122.501 217.096 124.577 215.04 125.078C212.979 125.581 210.903 124.316 210.401 122.26C209.898 120.198 211.164 118.123 213.22 117.621ZM208.258 97.2852C210.319 96.7822 212.395 98.0477 212.897 100.104C213.4 102.165 212.134 104.241 210.078 104.743C208.016 105.246 205.941 103.98 205.439 101.924C204.936 99.8626 206.202 97.787 208.258 97.2852ZM203.296 76.9495C205.357 76.4465 207.433 77.712 207.934 79.7684C208.437 81.8297 207.172 83.9053 205.116 84.4071C203.054 84.9101 200.979 83.6446 200.477 81.5882C199.974 79.5269 201.239 77.4513 203.296 76.9495ZM198.334 56.6138C200.395 56.1108 202.47 57.3763 202.972 59.4327C203.475 61.494 202.21 63.5696 200.153 64.0714C198.092 64.5744 196.016 63.3089 195.515 61.2525C195.012 59.1912 196.277 57.1156 198.334 56.6138ZM193.371 36.2781C195.433 35.7752 197.508 37.0406 198.01 39.097C198.513 41.1583 197.247 43.2339 195.191 43.7357C193.13 44.2387 191.054 42.9732 190.552 40.9168C190.049 38.8555 191.315 36.7799 193.371 36.2781ZM188.409 15.9425C190.47 15.4395 192.546 16.7049 193.048 18.7614C193.551 20.8226 192.285 22.8982 190.229 23.4C188.168 23.903 186.092 22.6375 185.59 20.5811C185.087 18.5198 186.353 16.4443 188.409 15.9425ZM217.69 224.237C219.751 223.734 221.827 225 222.328 227.056C222.831 229.117 221.566 231.193 219.51 231.695C217.448 232.198 215.373 230.932 214.871 228.876C214.368 226.815 215.633 224.739 217.69 224.237ZM212.728 203.902C214.789 203.399 216.864 204.664 217.366 206.72C217.869 208.782 216.604 210.857 214.547 211.359C212.486 211.862 210.41 210.597 209.909 208.54C209.406 206.479 210.671 204.403 212.728 203.902ZM207.765 183.566C209.827 183.063 211.902 184.328 212.404 186.385C212.907 188.446 211.642 190.522 209.585 191.023C207.524 191.526 205.448 190.261 204.946 188.205C204.443 186.143 205.709 184.068 207.765 183.566ZM202.803 163.23C204.864 162.727 206.94 163.993 207.442 166.049C207.945 168.11 206.679 170.186 204.623 170.688C202.562 171.191 200.486 169.925 199.984 167.869C199.481 165.808 200.747 163.732 202.803 163.23ZM197.841 142.894C199.902 142.392 201.978 143.657 202.48 145.713C202.983 147.775 201.717 149.85 199.661 150.352C197.599 150.855 195.524 149.59 195.022 147.533C194.519 145.472 195.784 143.396 197.841 142.894V142.894ZM192.879 122.559C194.94 122.056 197.015 123.321 197.517 125.378C198.02 127.439 196.755 129.515 194.698 130.016C192.637 130.519 190.562 129.254 190.06 127.197C189.557 125.136 190.822 123.061 192.879 122.559ZM187.916 102.223C189.978 101.72 192.053 102.986 192.555 105.042C193.058 107.103 191.793 109.179 189.736 109.681C187.675 110.184 185.599 108.918 185.098 106.862C184.595 104.801 185.86 102.725 187.916 102.223ZM182.954 81.8874C185.015 81.3845 187.091 82.6499 187.593 84.7063C188.096 86.7676 186.83 88.8432 184.774 89.345C182.713 89.848 180.637 88.5825 180.135 86.5261C179.632 84.4648 180.898 82.3892 182.954 81.8874ZM177.992 61.5518C180.053 61.0488 182.129 62.3142 182.631 64.3706C183.134 66.4319 181.868 68.5075 179.812 69.0093C177.75 69.5123 175.675 68.2468 175.173 66.1904C174.67 64.1291 175.936 62.0536 177.992 61.5518ZM173.03 41.2161C175.091 40.7131 177.167 41.9785 177.668 44.035C178.171 46.0962 176.906 48.1718 174.849 48.6736C172.788 49.1766 170.713 47.9111 170.211 45.8547C169.708 43.7934 170.973 41.7179 173.03 41.2161ZM168.067 20.8804C170.129 20.3774 172.204 21.6429 172.706 23.6993C173.209 25.7606 171.944 27.8361 169.887 28.3379C167.826 28.8409 165.75 27.5755 165.249 25.519C164.746 23.4578 166.011 21.3822 168.067 20.8804ZM197.348 229.175C199.409 228.672 201.485 229.938 201.987 231.994C202.49 234.055 201.224 236.131 199.168 236.633C197.107 237.136 195.031 235.87 194.529 233.814C194.026 231.753 195.292 229.677 197.348 229.175ZM192.386 208.839C194.447 208.336 196.523 209.602 197.025 211.658C197.528 213.72 196.262 215.795 194.206 216.297C192.144 216.8 190.069 215.535 189.567 213.478C189.064 211.417 190.33 209.341 192.386 208.839ZM187.424 188.504C189.485 188.001 191.561 189.266 192.062 191.323C192.565 193.384 191.3 195.46 189.243 195.961C187.182 196.464 185.107 195.199 184.605 193.142C184.102 191.081 185.367 189.006 187.424 188.504ZM182.461 168.168C184.523 167.665 186.598 168.931 187.1 170.987C187.603 173.048 186.338 175.124 184.281 175.626C182.22 176.129 180.144 174.863 179.643 172.807C179.14 170.745 180.405 168.67 182.461 168.168ZM177.499 147.832C179.561 147.329 181.636 148.595 182.138 150.651C182.641 152.713 181.375 154.788 179.319 155.29C177.258 155.793 175.182 154.527 174.68 152.471C174.177 150.41 175.443 148.334 177.499 147.832V147.832ZM172.537 127.497C174.598 126.994 176.674 128.259 177.176 130.316C177.679 132.377 176.413 134.452 174.357 134.954C172.296 135.457 170.22 134.192 169.718 132.135C169.215 130.074 170.481 127.999 172.537 127.497ZM167.575 107.161C169.636 106.658 171.712 107.924 172.213 109.98C172.716 112.041 171.451 114.117 169.395 114.619C167.333 115.122 165.258 113.856 164.756 111.8C164.253 109.738 165.518 107.663 167.575 107.161ZM162.613 86.8254C164.674 86.3224 166.749 87.5878 167.251 89.6443C167.754 91.7055 166.489 93.7811 164.432 94.2829C162.371 94.7859 160.295 93.5204 159.794 91.464C159.291 89.4027 160.556 87.3272 162.613 86.8254ZM157.65 66.4897C159.712 65.9867 161.787 67.2522 162.289 69.3086C162.792 71.3699 161.526 73.4454 159.47 73.9472C157.409 74.4502 155.333 73.1848 154.831 71.1283C154.328 69.0671 155.594 66.9915 157.65 66.4897ZM152.688 46.154C154.749 45.651 156.825 46.9165 157.327 48.9729C157.83 51.0342 156.564 53.1097 154.508 53.6115C152.447 54.1145 150.371 52.8491 149.869 50.7927C149.366 48.7314 150.632 46.6558 152.688 46.154ZM147.726 25.8183C149.787 25.3153 151.863 26.5808 152.365 28.6372C152.867 30.6985 151.602 32.7741 149.546 33.2759C147.484 33.7788 145.409 32.5134 144.907 30.457C144.404 28.3957 145.669 26.3201 147.726 25.8183ZM177.007 234.113C179.068 233.61 181.143 234.876 181.645 236.932C182.148 238.993 180.883 241.069 178.826 241.571C176.765 242.074 174.689 240.808 174.188 238.752C173.685 236.69 174.95 234.615 177.007 234.113ZM172.044 213.777C174.106 213.274 176.181 214.54 176.683 216.596C177.186 218.658 175.921 220.733 173.864 221.235C171.803 221.738 169.727 220.472 169.225 218.416C168.722 216.355 169.988 214.279 172.044 213.777ZM167.082 193.442C169.143 192.939 171.219 194.204 171.721 196.261C172.224 198.322 170.958 200.397 168.902 200.899C166.841 201.402 164.765 200.137 164.263 198.08C163.76 196.019 165.026 193.944 167.082 193.442ZM162.12 173.106C164.181 172.603 166.257 173.869 166.759 175.925C167.262 177.986 165.996 180.062 163.94 180.564C161.878 181.067 159.803 179.801 159.301 177.745C158.798 175.683 160.063 173.608 162.12 173.106ZM157.158 152.77C159.219 152.267 161.294 153.533 161.796 155.589C162.299 157.651 161.034 159.726 158.977 160.228C156.916 160.731 154.841 159.465 154.339 157.409C153.836 155.348 155.101 153.272 157.158 152.77V152.77ZM152.195 132.435C154.257 131.932 156.332 133.197 156.834 135.254C157.337 137.315 156.072 139.39 154.015 139.892C151.954 140.395 149.878 139.13 149.377 137.073C148.874 135.012 150.139 132.936 152.195 132.435ZM147.233 112.099C149.294 111.596 151.37 112.861 151.872 114.918C152.375 116.979 151.109 119.055 149.053 119.557C146.992 120.06 144.916 118.794 144.414 116.738C143.911 114.676 145.177 112.601 147.233 112.099ZM142.271 91.7633C144.332 91.2603 146.408 92.5258 146.91 94.5822C147.413 96.6435 146.147 98.719 144.091 99.2208C142.029 99.7238 139.954 98.4584 139.452 96.4019C138.949 94.3407 140.215 92.2651 142.271 91.7633ZM137.309 71.4276C139.37 70.9246 141.446 72.1901 141.947 74.2465C142.45 76.3078 141.185 78.3834 139.128 78.8852C137.067 79.3881 134.992 78.1227 134.49 76.0663C133.987 74.005 135.252 71.9294 137.309 71.4276ZM132.346 51.0919C134.408 50.5889 136.483 51.8544 136.985 53.9108C137.488 55.9721 136.223 58.0477 134.166 58.5495C132.105 59.0525 130.029 57.787 129.528 55.7306C129.025 53.6693 130.29 51.5937 132.346 51.0919ZM127.384 30.7562C129.446 30.2533 131.521 31.5187 132.023 33.5751C132.526 35.6364 131.26 37.712 129.204 38.2138C127.143 38.7168 125.067 37.4513 124.565 35.3949C124.062 33.3336 125.328 31.258 127.384 30.7562ZM156.665 239.051C158.726 238.548 160.802 239.813 161.304 241.87C161.807 243.931 160.541 246.007 158.485 246.509C156.423 247.012 154.348 245.746 153.846 243.69C153.343 241.628 154.609 239.553 156.665 239.051ZM151.703 218.715C153.764 218.212 155.84 219.478 156.341 221.534C156.844 223.595 155.579 225.671 153.522 226.173C151.461 226.676 149.386 225.41 148.884 223.354C148.381 221.293 149.646 219.217 151.703 218.715ZM146.74 198.38C148.802 197.877 150.877 199.142 151.379 201.199C151.882 203.26 150.617 205.335 148.56 205.837C146.499 206.34 144.423 205.075 143.922 203.018C143.419 200.957 144.684 198.881 146.74 198.38ZM141.778 178.044C143.84 177.541 145.915 178.806 146.417 180.863C146.92 182.924 145.654 185 143.598 185.502C141.537 186.004 139.461 184.739 138.959 182.683C138.456 180.621 139.722 178.546 141.778 178.044ZM136.816 157.708C138.877 157.205 140.953 158.471 141.455 160.527C141.958 162.588 140.692 164.664 138.636 165.166C136.575 165.669 134.499 164.403 133.997 162.347C133.494 160.286 134.76 158.21 136.816 157.708V157.708ZM131.854 137.373C133.915 136.87 135.991 138.135 136.492 140.191C136.995 142.253 135.73 144.328 133.674 144.83C131.612 145.333 129.537 144.068 129.035 142.011C128.532 139.95 129.797 137.874 131.854 137.373ZM126.892 117.037C128.953 116.534 131.028 117.799 131.53 119.856C132.033 121.917 130.768 123.993 128.711 124.494C126.65 124.997 124.574 123.732 124.073 121.676C123.57 119.614 124.835 117.539 126.892 117.037ZM121.929 96.7012C123.991 96.1982 126.066 97.4637 126.568 99.5201C127.071 101.581 125.806 103.657 123.749 104.159C121.688 104.662 119.612 103.396 119.11 101.34C118.607 99.2786 119.873 97.203 121.929 96.7012ZM116.967 76.3655C119.028 75.8626 121.104 77.128 121.606 79.1844C122.109 81.2457 120.843 83.3213 118.787 83.8231C116.726 84.3261 114.65 83.0606 114.148 81.0042C113.645 78.9429 114.911 76.8673 116.967 76.3655ZM112.005 56.0299C114.066 55.5269 116.142 56.7923 116.644 58.8487C117.146 60.91 115.881 62.9856 113.825 63.4874C111.763 63.9904 109.688 62.7249 109.186 60.6685C108.683 58.6072 109.948 56.5316 112.005 56.0299ZM107.043 35.6942C109.104 35.1912 111.179 36.4566 111.681 38.5131C112.184 40.5743 110.919 42.6499 108.862 43.1517C106.801 43.6547 104.726 42.3892 104.224 40.3328C103.721 38.2715 104.986 36.196 107.043 35.6942ZM136.323 243.989C138.385 243.486 140.46 244.751 140.962 246.808C141.465 248.869 140.2 250.945 138.143 251.446C136.082 251.949 134.006 250.684 133.504 248.628C133.001 246.566 134.267 244.491 136.323 243.989ZM131.361 223.653C133.422 223.15 135.498 224.416 136 226.472C136.503 228.533 135.237 230.609 133.181 231.111C131.12 231.614 129.044 230.348 128.542 228.292C128.039 226.231 129.305 224.155 131.361 223.653ZM126.399 203.318C128.46 202.815 130.536 204.08 131.038 206.136C131.541 208.198 130.275 210.273 128.219 210.775C126.157 211.278 124.082 210.013 123.58 207.956C123.077 205.895 124.342 203.819 126.399 203.318ZM121.437 182.982C123.498 182.479 125.574 183.744 126.075 185.801C126.578 187.862 125.313 189.938 123.256 190.439C121.195 190.942 119.12 189.677 118.618 187.621C118.115 185.559 119.38 183.484 121.437 182.982ZM116.474 162.646C118.536 162.143 120.611 163.409 121.113 165.465C121.616 167.526 120.351 169.602 118.294 170.104C116.233 170.607 114.157 169.341 113.656 167.285C113.153 165.224 114.418 163.148 116.474 162.646V162.646ZM111.512 142.311C113.573 141.808 115.649 143.073 116.151 145.129C116.654 147.191 115.388 149.266 113.332 149.768C111.271 150.271 109.195 149.006 108.693 146.949C108.19 144.888 109.456 142.812 111.512 142.311ZM106.55 121.975C108.611 121.472 110.687 122.737 111.189 124.794C111.692 126.855 110.426 128.931 108.37 129.432C106.308 129.935 104.233 128.67 103.731 126.613C103.228 124.552 104.494 122.477 106.55 121.975ZM101.588 101.639C103.649 101.136 105.725 102.402 106.226 104.458C106.729 106.519 105.464 108.595 103.407 109.097C101.346 109.6 99.2706 108.334 98.7688 106.278C98.2658 104.217 99.5313 102.141 101.588 101.639ZM96.6255 81.3035C98.6867 80.8005 100.762 82.0659 101.264 84.1224C101.767 86.1836 100.502 88.2592 98.4452 88.761C96.384 89.264 94.3084 87.9985 93.8066 85.9421C93.3036 83.8808 94.5691 81.8053 96.6255 81.3035ZM91.6632 60.9678C93.7245 60.4648 95.8001 61.7303 96.3019 63.7867C96.8049 65.848 95.5394 67.9235 93.483 68.4253C91.4217 68.9283 89.3461 67.6629 88.8443 65.6064C88.3414 63.5452 89.6068 61.4696 91.6632 60.9678ZM86.701 40.6321C88.7623 40.1291 90.8379 41.3946 91.3397 43.451C91.8426 45.5123 90.5772 47.5878 88.5208 48.0896C86.4595 48.5926 84.3839 47.3272 83.8821 45.2708C83.3791 43.2095 84.6446 41.1339 86.701 40.6321ZM115.982 248.927C118.043 248.424 120.119 249.689 120.62 251.746C121.123 253.807 119.858 255.883 117.801 256.384C115.74 256.887 113.665 255.622 113.163 253.566C112.66 251.504 113.925 249.429 115.982 248.927ZM111.019 228.591C113.081 228.088 115.156 229.354 115.658 231.41C116.161 233.471 114.896 235.547 112.839 236.049C110.778 236.552 108.702 235.286 108.201 233.23C107.698 231.169 108.963 229.093 111.019 228.591ZM106.057 208.256C108.119 207.753 110.194 209.018 110.696 211.074C111.199 213.136 109.933 215.211 107.877 215.713C105.816 216.216 103.74 214.951 103.238 212.894C102.735 210.833 104.001 208.757 106.057 208.256ZM101.095 187.92C103.156 187.417 105.232 188.682 105.734 190.739C106.237 192.8 104.971 194.876 102.915 195.377C100.854 195.88 98.7779 194.615 98.2761 192.558C97.7731 190.497 99.0386 188.422 101.095 187.92ZM96.1328 167.584C98.1941 167.081 100.27 168.347 100.771 170.403C101.274 172.464 100.009 174.54 97.9526 175.042C95.8913 175.545 93.8157 174.279 93.3139 172.223C92.8109 170.162 94.0764 168.086 96.1328 167.584V167.584ZM91.1706 147.248C93.2318 146.745 95.3074 148.011 95.8092 150.067C96.3122 152.129 95.0467 154.204 92.9903 154.706C90.929 155.209 88.8535 153.944 88.3517 151.887C87.8487 149.826 89.1141 147.75 91.1706 147.248ZM86.2083 126.913C88.2696 126.41 90.3452 127.675 90.847 129.732C91.35 131.793 90.0845 133.869 88.0281 134.37C85.9668 134.873 83.8912 133.608 83.3894 131.551C82.8864 129.49 84.1519 127.415 86.2083 126.913ZM81.2461 106.577C83.3074 106.074 85.3829 107.34 85.8847 109.396C86.3877 111.457 85.1223 113.533 83.0659 114.035C81.0046 114.538 78.929 113.272 78.4272 111.216C77.9242 109.154 79.1897 107.079 81.2461 106.577ZM76.2839 86.2414C78.3451 85.7384 80.4207 87.0039 80.9225 89.0603C81.4255 91.1216 80.16 93.1971 78.1036 93.6989C76.0423 94.2019 73.9668 92.9365 73.465 90.88C72.962 88.8188 74.2274 86.7432 76.2839 86.2414ZM71.3216 65.9057C73.3829 65.4027 75.4585 66.6682 75.9603 68.7246C76.4633 70.7859 75.1978 72.8615 73.1414 73.3633C71.0801 73.8662 69.0045 72.6008 68.5027 70.5444C67.9997 68.4831 69.2652 66.4075 71.3216 65.9057ZM66.3594 45.57C68.4207 45.067 70.4962 46.3325 70.998 48.3889C71.501 50.4502 70.2356 52.5258 68.1791 53.0276C66.1179 53.5306 64.0423 52.2651 63.5405 50.2087C63.0375 48.1474 64.303 46.0718 66.3594 45.57ZM95.6401 253.865C97.7014 253.362 99.777 254.627 100.279 256.684C100.782 258.745 99.5163 260.821 97.4599 261.322C95.3986 261.825 93.323 260.56 92.8212 258.503C92.3182 256.442 93.5837 254.367 95.6401 253.865ZM90.6779 233.529C92.7392 233.026 94.8147 234.292 95.3165 236.348C95.8195 238.409 94.5541 240.485 92.4976 240.987C90.4364 241.49 88.3608 240.224 87.859 238.168C87.356 236.106 88.6215 234.031 90.6779 233.529ZM85.7156 213.193C87.7769 212.69 89.8525 213.956 90.3543 216.012C90.8573 218.074 89.5918 220.149 87.5354 220.651C85.4741 221.154 83.3986 219.889 82.8968 217.832C82.3938 215.771 83.6592 213.695 85.7156 213.193ZM80.7534 192.858C82.8147 192.355 84.8903 193.62 85.3921 195.677C85.8951 197.738 84.6296 199.813 82.5732 200.315C80.5119 200.818 78.4363 199.553 77.9345 197.496C77.4315 195.435 78.697 193.36 80.7534 192.858ZM75.7912 172.522C77.8525 172.019 79.928 173.285 80.4298 175.341C80.9328 177.402 79.6674 179.478 77.6109 179.98C75.5497 180.483 73.4741 179.217 72.9723 177.161C72.4693 175.099 73.7348 173.024 75.7912 172.522V172.522ZM70.8289 152.186C72.8902 151.683 74.9658 152.949 75.4676 155.005C75.9706 157.067 74.7051 159.142 72.6487 159.644C70.5874 160.147 68.5118 158.881 68.01 156.825C67.5071 154.764 68.7725 152.688 70.8289 152.186ZM65.8667 131.851C67.928 131.348 70.0036 132.613 70.5054 134.67C71.0084 136.731 69.7429 138.806 67.6865 139.308C65.6252 139.811 63.5496 138.546 63.0478 136.489C62.5448 134.428 63.8103 132.352 65.8667 131.851ZM60.9045 111.515C62.9658 111.012 65.0413 112.277 65.5431 114.334C66.0461 116.395 64.7807 118.471 62.7242 118.973C60.663 119.476 58.5874 118.21 58.0856 116.154C57.5826 114.092 58.8481 112.017 60.9045 111.515ZM55.9422 91.1793C58.0035 90.6763 60.0791 91.9418 60.5809 93.9982C61.0839 96.0595 59.8184 98.1351 57.762 98.6369C55.7007 99.1399 53.6251 97.8744 53.1233 95.818C52.6204 93.7567 53.8858 91.6811 55.9422 91.1793ZM50.98 70.8436C53.0413 70.3406 55.1169 71.6061 55.6187 73.6625C56.1216 75.7238 54.8562 77.7994 52.7998 78.3012C50.7385 78.8042 48.6629 77.5387 48.1611 75.4823C47.6581 73.421 48.9236 71.3454 50.98 70.8436Z" fill="#EDEDED"/>
<path d="M385.861 61.345L444.428 53.8003C457.993 52.0528 470.433 53.6708 481.748 58.6544C493.062 63.6379 502.36 71.5777 509.639 82.4736C516.919 93.3695 521.565 106.627 523.577 122.246C525.589 137.865 524.454 151.867 520.174 164.252C515.894 176.637 508.912 186.674 499.23 194.362C489.548 202.051 477.924 206.769 464.359 208.516L405.792 216.061L385.861 61.345ZM458.445 173.777C469.061 172.409 477.07 167.558 482.472 159.222C487.991 150.872 489.897 140.066 488.189 126.805C486.48 113.543 481.898 103.573 474.442 96.8941C467.105 90.1999 458.127 87.5366 447.511 88.9042L425.394 91.7534L436.327 176.626L458.445 173.777Z" fill="white"/>
<path d="M526.381 43.2429L566.369 38.0915L572.316 137.313L545.598 140.755L526.381 43.2429ZM566.562 197.372C560.664 198.132 555.543 196.545 551.199 192.611C546.836 188.529 544.237 183.247 543.402 176.763C542.548 170.133 543.733 164.438 546.957 159.678C550.181 154.919 554.742 152.159 560.64 151.4C566.538 150.64 571.591 152.161 575.798 155.963C580.123 159.75 582.713 164.959 583.567 171.589C584.402 178.073 583.227 183.841 580.04 188.895C576.835 193.802 572.342 196.628 566.562 197.372Z" fill="white"/>
<path d="M102.034 151.845L47.5756 184.576L108.551 202.438L112.762 235.122L18.3141 205.87L13.873 171.395L97.8234 119.16L102.034 151.845Z" fill="white"/>
<path d="M235.884 205.151L240.297 239.403L138.613 252.502L118.426 95.7966L217.757 83.0005L222.17 117.252L158.301 125.479L161.704 151.895L217.974 144.647L222.242 177.779L165.972 185.027L169.663 213.682L235.884 205.151Z" fill="white"/>
<path d="M360.49 64.6134L380.677 221.318L351.185 225.118L284.52 148.818L295.277 232.32L260.176 236.842L239.989 80.1365L269.481 76.3373L336.146 152.637L325.389 69.1352L360.49 64.6134Z" fill="white"/>
<path d="M691.275 84.1301L695.716 118.605L611.766 170.839L607.556 138.155L662.014 105.423L601.038 87.5618L596.828 54.8776L691.275 84.1301Z" fill="white"/>
<path d="M385.861 61.345L444.428 53.8003C457.993 52.0528 470.433 53.6708 481.748 58.6544C493.062 63.6379 502.36 71.5777 509.639 82.4736C516.919 93.3695 521.565 106.627 523.577 122.246C525.589 137.865 524.454 151.867 520.174 164.252C515.894 176.637 508.912 186.674 499.23 194.362C489.548 202.051 477.924 206.769 464.359 208.516L405.792 216.061L385.861 61.345ZM458.445 173.777C469.061 172.409 477.07 167.558 482.472 159.222C487.991 150.872 489.897 140.066 488.189 126.805C486.48 113.543 481.898 103.573 474.442 96.8941C467.105 90.1999 458.127 87.5366 447.511 88.9042L425.394 91.7534L436.327 176.626L458.445 173.777Z" stroke="#98CB06" stroke-width="10"/>
<path d="M526.381 43.2429L566.369 38.0915L572.316 137.313L545.598 140.755L526.381 43.2429ZM566.562 197.372C560.664 198.132 555.543 196.545 551.199 192.611C546.836 188.529 544.237 183.247 543.402 176.763C542.548 170.133 543.733 164.438 546.957 159.678C550.181 154.919 554.742 152.159 560.64 151.4C566.538 150.64 571.591 152.161 575.798 155.963C580.123 159.75 582.713 164.959 583.567 171.589C584.402 178.073 583.227 183.841 580.04 188.895C576.835 193.802 572.342 196.628 566.562 197.372Z" stroke="#98CB06" stroke-width="10"/>
<path d="M102.034 151.845L47.5756 184.576L108.551 202.438L112.762 235.122L18.3141 205.87L13.873 171.395L97.8234 119.16L102.034 151.845Z" stroke="#98CB06" stroke-width="10"/>
<path d="M235.884 205.151L240.297 239.403L138.613 252.502L118.426 95.7966L217.757 83.0005L222.17 117.252L158.301 125.479L161.704 151.895L217.974 144.647L222.242 177.779L165.972 185.027L169.663 213.682L235.884 205.151Z" stroke="#98CB06" stroke-width="10"/>
<path d="M360.49 64.6134L380.677 221.318L351.185 225.118L284.52 148.818L295.277 232.32L260.176 236.842L239.989 80.1365L269.481 76.3373L336.146 152.637L325.389 69.1352L360.49 64.6134Z" stroke="#98CB06" stroke-width="10"/>
<path d="M691.275 84.1301L695.716 118.605L611.766 170.839L607.556 138.155L662.014 105.423L601.038 87.5618L596.828 54.8776L691.275 84.1301Z" stroke="#98CB06" stroke-width="10"/>
</svg>
