<svg width="172" height="58" viewBox="0 0 172 58" fill="none" xmlns="http://www.w3.org/2000/svg">
<path d="M0.730469 57.9999V34.0524V2.18665L47.2415 57.9999H27.9606L18.3201 47.7643V57.9999H0.730469Z" fill="#98CB06"/>
<path d="M30.6667 2.18665H47.2415V24.7823L30.6667 2.18665Z" fill="#98CB06"/>
<path d="M90.4152 58H70.5887L64.2969 51.6827V26.6315L70.5887 20.3143H84.1234L90.4152 26.6315V39.1934L84.1234 45.4381H72.4177L78.8558 39.1934H83.2454V26.6315H71.5398V51.6827H90.4152V58Z" fill="black"/>
<path d="M122.409 58H115.239V26.6315H103.533V58H96.2903V20.3143H103.533V25.7602L108.874 20.3143H116.117L122.409 26.6315V58Z" fill="black"/>
<path d="M155.654 58H148.484V52.6267L143.216 58H135.827L129.535 51.6827V26.6315L135.827 20.3143H148.484V7.75235L155.654 0.636353V58ZM148.484 51.6827V21.1856L142.924 26.6315H136.778V51.6827H148.484Z" fill="black"/>
<path d="M171.272 14.1422H164.029V6.95361H171.272V14.1422ZM171.272 58H164.029V25.8328L171.272 18.5716V58Z" fill="black"/>
</svg>
